<svg class="main-svg" xmlns="http://www.w3.org/2000/svg" xmlns:xlink="http://www.w3.org/1999/xlink" width="2200" height="1106" style="" viewBox="0 0 1100 553"><rect x="0" y="0" width="1100" height="553" style="fill: rgb(255, 255, 255); fill-opacity: 1;"/><defs id="defs-6d1a3e"><g class="clips"><clipPath id="clip6d1a3exyplot" class="plotclip"><rect width="1016" height="42.09090909090905"/></clipPath><clipPath id="clip6d1a3ex2y2plot" class="plotclip"><rect width="1016" height="42.09090909090911"/></clipPath><clipPath id="clip6d1a3ex3y3plot" class="plotclip"><rect width="1016" height="42.09090909090911"/></clipPath><clipPath id="clip6d1a3ex4y4plot" class="plotclip"><rect width="1016" height="42.09090909090911"/></clipPath><clipPath id="clip6d1a3ex5y5plot" class="plotclip"><rect width="1016" height="42.09090909090908"/></clipPath><clipPath id="clip6d1a3ex6y6plot" class="plotclip"><rect width="1016" height="42.09090909090909"/></clipPath><clipPath id="clip6d1a3ex7y7plot" class="plotclip"><rect width="1016" height="42.09090909090909"/></clipPath><clipPath class="axesclip" id="clip6d1a3ex"><rect x="69" y="0" width="1016" height="553"/></clipPath><clipPath class="axesclip" id="clip6d1a3ey"><rect x="0" y="50" width="1100" height="42.09090909090905"/></clipPath><clipPath class="axesclip" id="clip6d1a3exy"><rect x="69" y="50" width="1016" height="42.09090909090905"/></clipPath><clipPath class="axesclip" id="clip6d1a3ey2"><rect x="0" y="120.15151515151514" width="1100" height="42.09090909090911"/></clipPath><clipPath class="axesclip" id="clip6d1a3exy2"><rect x="69" y="120.15151515151514" width="1016" height="42.09090909090911"/></clipPath><clipPath class="axesclip" id="clip6d1a3ey3"><rect x="0" y="190.30303030303028" width="1100" height="42.09090909090911"/></clipPath><clipPath class="axesclip" id="clip6d1a3exy3"><rect x="69" y="190.30303030303028" width="1016" height="42.09090909090911"/></clipPath><clipPath class="axesclip" id="clip6d1a3ey4"><rect x="0" y="260.4545454545454" width="1100" height="42.09090909090911"/></clipPath><clipPath class="axesclip" id="clip6d1a3exy4"><rect x="69" y="260.4545454545454" width="1016" height="42.09090909090911"/></clipPath><clipPath class="axesclip" id="clip6d1a3ey5"><rect x="0" y="330.6060606060606" width="1100" height="42.09090909090908"/></clipPath><clipPath class="axesclip" id="clip6d1a3exy5"><rect x="69" y="330.6060606060606" width="1016" height="42.09090909090908"/></clipPath><clipPath class="axesclip" id="clip6d1a3ey6"><rect x="0" y="400.75757575757575" width="1100" height="42.09090909090909"/></clipPath><clipPath class="axesclip" id="clip6d1a3exy6"><rect x="69" y="400.75757575757575" width="1016" height="42.09090909090909"/></clipPath><clipPath class="axesclip" id="clip6d1a3ey7"><rect x="0" y="470.9090909090909" width="1100" height="42.09090909090909"/></clipPath><clipPath class="axesclip" id="clip6d1a3exy7"><rect x="69" y="470.9090909090909" width="1016" height="42.09090909090909"/></clipPath><clipPath class="axesclip" id="clip6d1a3ex2"><rect x="69" y="0" width="1016" height="553"/></clipPath><clipPath class="axesclip" id="clip6d1a3ex2y"><rect x="69" y="50" width="1016" height="42.09090909090905"/></clipPath><clipPath class="axesclip" id="clip6d1a3ex2y2"><rect x="69" y="120.15151515151514" width="1016" height="42.09090909090911"/></clipPath><clipPath class="axesclip" id="clip6d1a3ex2y3"><rect x="69" y="190.30303030303028" width="1016" height="42.09090909090911"/></clipPath><clipPath class="axesclip" id="clip6d1a3ex2y4"><rect x="69" y="260.4545454545454" width="1016" height="42.09090909090911"/></clipPath><clipPath class="axesclip" id="clip6d1a3ex2y5"><rect x="69" y="330.6060606060606" width="1016" height="42.09090909090908"/></clipPath><clipPath class="axesclip" id="clip6d1a3ex2y6"><rect x="69" y="400.75757575757575" width="1016" height="42.09090909090909"/></clipPath><clipPath class="axesclip" id="clip6d1a3ex2y7"><rect x="69" y="470.9090909090909" width="1016" height="42.09090909090909"/></clipPath><clipPath class="axesclip" id="clip6d1a3ex3"><rect x="69" y="0" width="1016" height="553"/></clipPath><clipPath class="axesclip" id="clip6d1a3ex3y"><rect x="69" y="50" width="1016" height="42.09090909090905"/></clipPath><clipPath class="axesclip" id="clip6d1a3ex3y2"><rect x="69" y="120.15151515151514" width="1016" height="42.09090909090911"/></clipPath><clipPath class="axesclip" id="clip6d1a3ex3y3"><rect x="69" y="190.30303030303028" width="1016" height="42.09090909090911"/></clipPath><clipPath class="axesclip" id="clip6d1a3ex3y4"><rect x="69" y="260.4545454545454" width="1016" height="42.09090909090911"/></clipPath><clipPath class="axesclip" id="clip6d1a3ex3y5"><rect x="69" y="330.6060606060606" width="1016" height="42.09090909090908"/></clipPath><clipPath class="axesclip" id="clip6d1a3ex3y6"><rect x="69" y="400.75757575757575" width="1016" height="42.09090909090909"/></clipPath><clipPath class="axesclip" id="clip6d1a3ex3y7"><rect x="69" y="470.9090909090909" width="1016" height="42.09090909090909"/></clipPath><clipPath class="axesclip" id="clip6d1a3ex4"><rect x="69" y="0" width="1016" height="553"/></clipPath><clipPath class="axesclip" id="clip6d1a3ex4y"><rect x="69" y="50" width="1016" height="42.09090909090905"/></clipPath><clipPath class="axesclip" id="clip6d1a3ex4y2"><rect x="69" y="120.15151515151514" width="1016" height="42.09090909090911"/></clipPath><clipPath class="axesclip" id="clip6d1a3ex4y3"><rect x="69" y="190.30303030303028" width="1016" height="42.09090909090911"/></clipPath><clipPath class="axesclip" id="clip6d1a3ex4y4"><rect x="69" y="260.4545454545454" width="1016" height="42.09090909090911"/></clipPath><clipPath class="axesclip" id="clip6d1a3ex4y5"><rect x="69" y="330.6060606060606" width="1016" height="42.09090909090908"/></clipPath><clipPath class="axesclip" id="clip6d1a3ex4y6"><rect x="69" y="400.75757575757575" width="1016" height="42.09090909090909"/></clipPath><clipPath class="axesclip" id="clip6d1a3ex4y7"><rect x="69" y="470.9090909090909" width="1016" height="42.09090909090909"/></clipPath><clipPath class="axesclip" id="clip6d1a3ex5"><rect x="69" y="0" width="1016" height="553"/></clipPath><clipPath class="axesclip" id="clip6d1a3ex5y"><rect x="69" y="50" width="1016" height="42.09090909090905"/></clipPath><clipPath class="axesclip" id="clip6d1a3ex5y2"><rect x="69" y="120.15151515151514" width="1016" height="42.09090909090911"/></clipPath><clipPath class="axesclip" id="clip6d1a3ex5y3"><rect x="69" y="190.30303030303028" width="1016" height="42.09090909090911"/></clipPath><clipPath class="axesclip" id="clip6d1a3ex5y4"><rect x="69" y="260.4545454545454" width="1016" height="42.09090909090911"/></clipPath><clipPath class="axesclip" id="clip6d1a3ex5y5"><rect x="69" y="330.6060606060606" width="1016" height="42.09090909090908"/></clipPath><clipPath class="axesclip" id="clip6d1a3ex5y6"><rect x="69" y="400.75757575757575" width="1016" height="42.09090909090909"/></clipPath><clipPath class="axesclip" id="clip6d1a3ex5y7"><rect x="69" y="470.9090909090909" width="1016" height="42.09090909090909"/></clipPath><clipPath class="axesclip" id="clip6d1a3ex6"><rect x="69" y="0" width="1016" height="553"/></clipPath><clipPath class="axesclip" id="clip6d1a3ex6y"><rect x="69" y="50" width="1016" height="42.09090909090905"/></clipPath><clipPath class="axesclip" id="clip6d1a3ex6y2"><rect x="69" y="120.15151515151514" width="1016" height="42.09090909090911"/></clipPath><clipPath class="axesclip" id="clip6d1a3ex6y3"><rect x="69" y="190.30303030303028" width="1016" height="42.09090909090911"/></clipPath><clipPath class="axesclip" id="clip6d1a3ex6y4"><rect x="69" y="260.4545454545454" width="1016" height="42.09090909090911"/></clipPath><clipPath class="axesclip" id="clip6d1a3ex6y5"><rect x="69" y="330.6060606060606" width="1016" height="42.09090909090908"/></clipPath><clipPath class="axesclip" id="clip6d1a3ex6y6"><rect x="69" y="400.75757575757575" width="1016" height="42.09090909090909"/></clipPath><clipPath class="axesclip" id="clip6d1a3ex6y7"><rect x="69" y="470.9090909090909" width="1016" height="42.09090909090909"/></clipPath><clipPath class="axesclip" id="clip6d1a3ex7"><rect x="69" y="0" width="1016" height="553"/></clipPath><clipPath class="axesclip" id="clip6d1a3ex7y"><rect x="69" y="50" width="1016" height="42.09090909090905"/></clipPath><clipPath class="axesclip" id="clip6d1a3ex7y2"><rect x="69" y="120.15151515151514" width="1016" height="42.09090909090911"/></clipPath><clipPath class="axesclip" id="clip6d1a3ex7y3"><rect x="69" y="190.30303030303028" width="1016" height="42.09090909090911"/></clipPath><clipPath class="axesclip" id="clip6d1a3ex7y4"><rect x="69" y="260.4545454545454" width="1016" height="42.09090909090911"/></clipPath><clipPath class="axesclip" id="clip6d1a3ex7y5"><rect x="69" y="330.6060606060606" width="1016" height="42.09090909090908"/></clipPath><clipPath class="axesclip" id="clip6d1a3ex7y6"><rect x="69" y="400.75757575757575" width="1016" height="42.09090909090909"/></clipPath><clipPath class="axesclip" id="clip6d1a3ex7y7"><rect x="69" y="470.9090909090909" width="1016" height="42.09090909090909"/></clipPath></g><g class="gradients"/><g class="patterns"/></defs><g class="bglayer"/><g class="layer-below"><g class="imagelayer"/><g class="shapelayer"/></g><g class="cartesianlayer"><g class="subplot xy"><g class="layer-subplot"><g class="shapelayer"/><g class="imagelayer"/></g><g class="minor-gridlayer"><g class="x"/><g class="y"/></g><g class="gridlayer"><g class="x"><path class="xgrid crisp" transform="translate(406.5,0)" d="M0,50v42.09090909090905" style="stroke: rgb(0, 0, 0); stroke-opacity: 0.1; stroke-width: 1px;"/><path class="xgrid crisp" transform="translate(747.5,0)" d="M0,50v42.09090909090905" style="stroke: rgb(0, 0, 0); stroke-opacity: 0.1; stroke-width: 1px;"/></g><g class="y"><path class="ygrid crisp" transform="translate(0,71.05)" d="M69,0h1016" style="stroke: rgb(0, 0, 0); stroke-opacity: 0.1; stroke-width: 1px;"/></g></g><g class="zerolinelayer"/><g class="layer-between"><g class="shapelayer"/><g class="imagelayer"/></g><path class="xlines-below"/><path class="ylines-below"/><g class="overlines-below"/><g class="xaxislayer-below"/><g class="yaxislayer-below"/><g class="overaxes-below"/><g class="overplot"><g class="xy" transform="translate(69,50)" clip-path="url(#clip6d1a3exyplot)"><g class="violinlayer mlayer"><g class="trace violins" style="opacity: 0.5;"><path class="violin" d="M50.8,19.13Q81.28,18.21 96.52,17.59C111.76,16.97 127,16.23 142.24,15.43C157.48,14.63 172.72,13.69 187.96,12.8C203.2,11.91 218.44,10.9 233.68,10.07C248.92,9.24 264.16,8.4 279.4,7.8C294.64,7.2 309.88,6.73 325.12,6.48C340.36,6.23 355.6,6.21 370.84,6.31C386.08,6.41 401.32,6.77 416.56,7.1C431.8,7.44 447.04,7.93 462.28,8.32C477.52,8.7 492.76,9.12 508,9.41C523.24,9.7 538.48,9.9 553.72,10.04C568.96,10.18 584.2,10.2 599.44,10.27C614.68,10.34 629.92,10.33 645.16,10.44C660.4,10.55 675.64,10.69 690.88,10.96C706.12,11.23 721.36,11.6 736.6,12.05C751.84,12.5 767.08,13.09 782.32,13.67C797.56,14.25 812.8,14.91 828.04,15.52C843.28,16.12 858.52,16.76 873.76,17.3C889,17.84 904.24,18.33 919.48,18.74Q934.72,19.15 965.2,19.77L965.2,22.32Q934.72,22.94 919.48,23.35C904.24,23.76 889,24.25 873.76,24.79C858.52,25.33 843.28,25.96 828.04,26.57C812.8,27.18 797.56,27.85 782.32,28.43C767.08,29.01 751.84,29.59 736.6,30.04C721.36,30.49 706.12,30.86 690.88,31.13C675.64,31.4 660.4,31.53 645.16,31.65C629.92,31.77 614.68,31.76 599.44,31.83C584.2,31.9 568.96,31.91 553.72,32.05C538.48,32.19 523.24,32.39 508,32.68C492.76,32.97 477.52,33.39 462.28,33.77C447.04,34.16 431.8,34.65 416.56,34.99C401.32,35.32 386.08,35.68 370.84,35.78C355.6,35.88 340.36,35.86 325.12,35.61C309.88,35.36 294.64,34.89 279.4,34.29C264.16,33.69 248.92,32.85 233.68,32.02C218.44,31.19 203.2,30.18 187.96,29.29C172.72,28.4 157.48,27.46 142.24,26.66C127,25.86 111.76,25.12 96.52,24.5Q81.28,23.88 50.8,22.96Z" style="vector-effect: none; stroke-width: 2px; stroke: rgb(181, 181, 181); stroke-opacity: 1; fill: rgb(181, 181, 181); fill-opacity: 1;"/><path class="box" d="M338.5,24.73V17.36M337.5,24.73V17.36H678.5V24.73ZM337.5,21.05H337.5M678.5,21.05H678.5" style="vector-effect: non-scaling-stroke; stroke-width: 2px; stroke: rgb(181, 181, 181); stroke-opacity: 1; fill: rgb(181, 181, 181); fill-opacity: 1;"/><path class="mean" d="M473.9,24.73V17.36" style="fill: none; vector-effect: non-scaling-stroke; stroke-width: 2px; stroke-dasharray: 4px, 2px; stroke: rgb(181, 181, 181); stroke-opacity: 1;"/></g></g><g class="scatterlayer mlayer"><g class="trace scatter trace128d14" style="stroke-miterlimit: 2; opacity: 1;"><g class="fills"/><g class="errorbars"/><g class="lines"/><g class="points"><path class="point" transform="translate(337.5,21.05)" d="M2,0A2,2 0 1,1 0,-2A2,2 0 0,1 2,0Z" style="opacity: 1; stroke-width: 0px; fill: rgb(11, 121, 230); fill-opacity: 1;"/></g><g class="text"/></g><g class="trace scatter tracea4e711" style="stroke-miterlimit: 2; opacity: 1;"><g class="fills"/><g class="errorbars"/><g class="lines"/><g class="points"><path class="point" transform="translate(337.5,21.05)" d="M2,0A2,2 0 1,1 0,-2A2,2 0 0,1 2,0Z" style="opacity: 1; stroke-width: 0px; fill: rgb(11, 121, 230); fill-opacity: 1;"/></g><g class="text"/></g><g class="trace scatter trace70a69d" style="stroke-miterlimit: 2; opacity: 1;"><g class="fills"/><g class="errorbars"/><g class="lines"/><g class="points"><path class="point" transform="translate(337.5,21.05)" d="M2,0A2,2 0 1,1 0,-2A2,2 0 0,1 2,0Z" style="opacity: 1; stroke-width: 0px; fill: rgb(11, 121, 230); fill-opacity: 1;"/></g><g class="text"/></g><g class="trace scatter traceb05af7" style="stroke-miterlimit: 2; opacity: 1;"><g class="fills"/><g class="errorbars"/><g class="lines"/><g class="points"><path class="point" transform="translate(678.5,21.05)" d="M2,0A2,2 0 1,1 0,-2A2,2 0 0,1 2,0Z" style="opacity: 1; stroke-width: 0px; fill: rgb(11, 121, 230); fill-opacity: 1;"/></g><g class="text"/></g><g class="trace scatter trace1a3933" style="stroke-miterlimit: 2; opacity: 1;"><g class="fills"/><g class="errorbars"/><g class="lines"/><g class="points"><path class="point" transform="translate(678.5,21.05)" d="M2,0A2,2 0 1,1 0,-2A2,2 0 0,1 2,0Z" style="opacity: 1; stroke-width: 0px; fill: rgb(11, 121, 230); fill-opacity: 1;"/></g><g class="text"/></g></g></g></g><path class="xlines-above crisp" d="M0,0" style="fill: none;"/><path class="ylines-above crisp" d="M0,0" style="fill: none;"/><g class="overlines-above"/><g class="xaxislayer-above"><g class="xtick"><text text-anchor="middle" x="0" y="102.09090909090905" transform="translate(406.5,0)" style="font-family: 'Lucida Grande', 'Open Sans', verdana, arial, sans-serif; font-size: 9px; fill: rgb(0, 0, 0); fill-opacity: 0.5; white-space: pre; opacity: 1;">UL97</text></g><g class="xtick"><text text-anchor="middle" x="0" y="102.09090909090905" transform="translate(747.5,0)" style="font-family: 'Lucida Grande', 'Open Sans', verdana, arial, sans-serif; font-size: 9px; fill: rgb(0, 0, 0); fill-opacity: 0.5; white-space: pre; opacity: 1;">UL54</text></g></g><g class="yaxislayer-above"><g class="ytick"><text text-anchor="end" x="68" y="3.15" transform="translate(0,71.05)" style="font-family: 'Lucida Grande', 'Open Sans', verdana, arial, sans-serif; font-size: 9px; fill: rgb(0, 0, 0); fill-opacity: 0.5; white-space: pre; opacity: 1;">GENE  </text></g></g><g class="overaxes-above"/></g><g class="subplot x2y2"><g class="layer-subplot"><g class="shapelayer"/><g class="imagelayer"/></g><g class="minor-gridlayer"><g class="x2"/><g class="y2"/></g><g class="gridlayer"><g class="x2"><path class="x2grid crisp" transform="translate(370.46,0)" d="M0,120.15151515151514v42.09090909090911" style="stroke: rgb(0, 0, 0); stroke-opacity: 0.1; stroke-width: 1px;"/><path class="x2grid crisp" transform="translate(473.73,0)" d="M0,120.15151515151514v42.09090909090911" style="stroke: rgb(0, 0, 0); stroke-opacity: 0.1; stroke-width: 1px;"/><path class="x2grid crisp" transform="translate(577,0)" d="M0,120.15151515151514v42.09090909090911" style="stroke: rgb(0, 0, 0); stroke-opacity: 0.1; stroke-width: 1px;"/><path class="x2grid crisp" transform="translate(680.27,0)" d="M0,120.15151515151514v42.09090909090911" style="stroke: rgb(0, 0, 0); stroke-opacity: 0.1; stroke-width: 1px;"/><path class="x2grid crisp" transform="translate(783.54,0)" d="M0,120.15151515151514v42.09090909090911" style="stroke: rgb(0, 0, 0); stroke-opacity: 0.1; stroke-width: 1px;"/></g><g class="y2"><path class="y2grid crisp" transform="translate(0,141.20151515151514)" d="M69,0h1016" style="stroke: rgb(0, 0, 0); stroke-opacity: 0.1; stroke-width: 1px;"/></g></g><g class="zerolinelayer"/><g class="layer-between"><g class="shapelayer"/><g class="imagelayer"/></g><path class="xlines-below"/><path class="ylines-below"/><g class="overlines-below"/><g class="xaxislayer-below"/><g class="yaxislayer-below"/><g class="overaxes-below"/><g class="overplot"><g class="x2y2" transform="translate(69,120.15151515151514)" clip-path="url(#clip6d1a3ex2y2plot)"><g class="violinlayer mlayer"><g class="trace violins" style="opacity: 0.5;"><path class="violin" d="M50.8,20.27Q78.51,19.85 92.36,19.55C106.22,19.25 120.08,18.89 133.93,18.45C147.79,18.01 161.64,17.49 175.49,16.92C189.34,16.35 203.2,15.7 217.05,15.04C230.91,14.38 244.76,13.66 258.62,12.98C272.47,12.3 286.32,11.6 300.18,10.97C314.03,10.35 327.89,9.74 341.75,9.23C355.6,8.72 369.46,8.27 383.31,7.89C397.16,7.52 411.02,7.22 424.87,6.98C438.73,6.74 452.58,6.58 466.44,6.47C480.29,6.36 494.15,6.31 508,6.31C521.85,6.31 535.71,6.36 549.56,6.47C563.42,6.58 577.27,6.74 591.13,6.98C604.98,7.22 618.84,7.52 632.69,7.89C646.54,8.27 660.4,8.72 674.25,9.23C688.11,9.74 701.97,10.35 715.82,10.97C729.68,11.6 743.53,12.3 757.38,12.98C771.24,13.66 785.09,14.38 798.95,15.04C812.8,15.7 826.66,16.35 840.51,16.92C854.36,17.49 868.21,18.01 882.07,18.45C895.92,18.89 909.78,19.25 923.64,19.55Q937.49,19.85 965.2,20.27L965.2,21.82Q937.49,22.24 923.64,22.54C909.78,22.84 895.92,23.2 882.07,23.64C868.21,24.08 854.36,24.6 840.51,25.17C826.66,25.74 812.8,26.39 798.95,27.05C785.09,27.71 771.24,28.43 757.38,29.11C743.53,29.79 729.68,30.49 715.82,31.12C701.97,31.74 688.11,32.35 674.25,32.86C660.4,33.37 646.54,33.82 632.69,34.2C618.84,34.57 604.98,34.87 591.13,35.11C577.27,35.35 563.42,35.51 549.56,35.62C535.71,35.73 521.85,35.78 508,35.78C494.15,35.78 480.29,35.73 466.44,35.62C452.58,35.51 438.73,35.35 424.87,35.11C411.02,34.87 397.16,34.57 383.31,34.2C369.46,33.82 355.6,33.37 341.75,32.86C327.89,32.35 314.03,31.74 300.18,31.12C286.32,30.49 272.47,29.79 258.62,29.11C244.76,28.43 230.91,27.71 217.05,27.05C203.2,26.39 189.34,25.74 175.49,25.17C161.64,24.6 147.79,24.08 133.93,23.64C120.08,23.2 106.22,22.84 92.36,22.54Q78.51,22.24 50.8,21.82Z" style="vector-effect: none; stroke-width: 2px; stroke: rgb(181, 181, 181); stroke-opacity: 1; fill: rgb(181, 181, 181); fill-opacity: 1;"/><path class="box" d="M508,24.73V17.36M378.91,24.73V17.36H637.09V24.73ZM378.91,21.05H301.46M637.09,21.05H714.54" style="vector-effect: non-scaling-stroke; stroke-width: 2px; stroke: rgb(181, 181, 181); stroke-opacity: 1; fill: rgb(181, 181, 181); fill-opacity: 1;"/><path class="mean" d="M508,24.73V17.36" style="fill: none; vector-effect: non-scaling-stroke; stroke-width: 2px; stroke-dasharray: 4px, 2px; stroke: rgb(181, 181, 181); stroke-opacity: 1;"/></g></g><g class="scatterlayer mlayer"><g class="trace scatter tracead253d" style="stroke-miterlimit: 2; opacity: 1;"><g class="fills"/><g class="errorbars"/><g class="lines"/><g class="points"><path class="point" transform="translate(301.46,21.05)" d="M2,0A2,2 0 1,1 0,-2A2,2 0 0,1 2,0Z" style="opacity: 1; stroke-width: 0px; fill: rgb(11, 121, 230); fill-opacity: 1;"/></g><g class="text"/></g><g class="trace scatter trace877441" style="stroke-miterlimit: 2; opacity: 1;"><g class="fills"/><g class="errorbars"/><g class="lines"/><g class="points"><path class="point" transform="translate(404.73,21.05)" d="M2,0A2,2 0 1,1 0,-2A2,2 0 0,1 2,0Z" style="opacity: 1; stroke-width: 0px; fill: rgb(11, 121, 230); fill-opacity: 1;"/></g><g class="text"/></g><g class="trace scatter trace940f16" style="stroke-miterlimit: 2; opacity: 1;"><g class="fills"/><g class="errorbars"/><g class="lines"/><g class="points"><path class="point" transform="translate(508,21.05)" d="M2,0A2,2 0 1,1 0,-2A2,2 0 0,1 2,0Z" style="opacity: 1; stroke-width: 0px; fill: rgb(11, 121, 230); fill-opacity: 1;"/></g><g class="text"/></g><g class="trace scatter trace5eadb1" style="stroke-miterlimit: 2; opacity: 1;"><g class="fills"/><g class="errorbars"/><g class="lines"/><g class="points"><path class="point" transform="translate(611.27,21.05)" d="M2,0A2,2 0 1,1 0,-2A2,2 0 0,1 2,0Z" style="opacity: 1; stroke-width: 0px; fill: rgb(11, 121, 230); fill-opacity: 1;"/></g><g class="text"/></g><g class="trace scatter tracede7464" style="stroke-miterlimit: 2; opacity: 1;"><g class="fills"/><g class="errorbars"/><g class="lines"/><g class="points"><path class="point" transform="translate(714.54,21.05)" d="M2,0A2,2 0 1,1 0,-2A2,2 0 0,1 2,0Z" style="opacity: 1; stroke-width: 0px; fill: rgb(11, 121, 230); fill-opacity: 1;"/></g><g class="text"/></g></g></g></g><path class="xlines-above crisp" d="M0,0" style="fill: none;"/><path class="ylines-above crisp" d="M0,0" style="fill: none;"/><g class="overlines-above"/><g class="xaxislayer-above"><g class="x2tick"><text text-anchor="middle" x="0" y="172.24242424242425" transform="translate(370.46,0)" style="font-family: 'Lucida Grande', 'Open Sans', verdana, arial, sans-serif; font-size: 9px; fill: rgb(0, 0, 0); fill-opacity: 0.5; white-space: pre; opacity: 1;">p.M460I</text></g><g class="x2tick"><text text-anchor="middle" x="0" y="172.24242424242425" transform="translate(473.73,0)" style="font-family: 'Lucida Grande', 'Open Sans', verdana, arial, sans-serif; font-size: 9px; fill: rgb(0, 0, 0); fill-opacity: 0.5; white-space: pre; opacity: 1;">p.A591V</text></g><g class="x2tick"><text text-anchor="middle" x="0" y="172.24242424242425" transform="translate(577,0)" style="font-family: 'Lucida Grande', 'Open Sans', verdana, arial, sans-serif; font-size: 9px; fill: rgb(0, 0, 0); fill-opacity: 0.5; white-space: pre; opacity: 1;">p.E362D</text></g><g class="x2tick"><text text-anchor="middle" x="0" y="172.24242424242425" transform="translate(680.27,0)" style="font-family: 'Lucida Grande', 'Open Sans', verdana, arial, sans-serif; font-size: 9px; fill: rgb(0, 0, 0); fill-opacity: 0.5; white-space: pre; opacity: 1;">p.T503I</text></g><g class="x2tick"><text text-anchor="middle" x="0" y="172.24242424242425" transform="translate(783.54,0)" style="font-family: 'Lucida Grande', 'Open Sans', verdana, arial, sans-serif; font-size: 9px; fill: rgb(0, 0, 0); fill-opacity: 0.5; white-space: pre; opacity: 1;">p.P522S</text></g></g><g class="yaxislayer-above"><g class="y2tick"><text text-anchor="end" x="68" y="3.15" transform="translate(0,141.20151515151514)" style="font-family: 'Lucida Grande', 'Open Sans', verdana, arial, sans-serif; font-size: 9px; fill: rgb(0, 0, 0); fill-opacity: 0.5; white-space: pre; opacity: 1;">AA  </text></g></g><g class="overaxes-above"/></g><g class="subplot x3y3"><g class="layer-subplot"><g class="shapelayer"/><g class="imagelayer"/></g><g class="minor-gridlayer"><g class="x3"/><g class="y3"/></g><g class="gridlayer"><g class="x3"><path class="x3grid crisp" transform="translate(212.86,0)" d="M0,190.30303030303028v42.09090909090911" style="stroke: rgb(0, 0, 0); stroke-opacity: 0.1; stroke-width: 1px;"/><path class="x3grid crisp" transform="translate(351.69,0)" d="M0,190.30303030303028v42.09090909090911" style="stroke: rgb(0, 0, 0); stroke-opacity: 0.1; stroke-width: 1px;"/><path class="x3grid crisp" transform="translate(490.53,0)" d="M0,190.30303030303028v42.09090909090911" style="stroke: rgb(0, 0, 0); stroke-opacity: 0.1; stroke-width: 1px;"/><path class="x3grid crisp" transform="translate(629.36,0)" d="M0,190.30303030303028v42.09090909090911" style="stroke: rgb(0, 0, 0); stroke-opacity: 0.1; stroke-width: 1px;"/><path class="x3grid crisp" transform="translate(768.19,0)" d="M0,190.30303030303028v42.09090909090911" style="stroke: rgb(0, 0, 0); stroke-opacity: 0.1; stroke-width: 1px;"/><path class="x3grid crisp" transform="translate(907.02,0)" d="M0,190.30303030303028v42.09090909090911" style="stroke: rgb(0, 0, 0); stroke-opacity: 0.1; stroke-width: 1px;"/><path class="x3grid crisp" transform="translate(1045.85,0)" d="M0,190.30303030303028v42.09090909090911" style="stroke: rgb(0, 0, 0); stroke-opacity: 0.1; stroke-width: 1px;"/></g><g class="y3"><path class="y3grid crisp" transform="translate(0,211.3530303030303)" d="M69,0h1016" style="stroke: rgb(0, 0, 0); stroke-opacity: 0.1; stroke-width: 1px;"/></g></g><g class="zerolinelayer"><path class="x3zl zl crisp" transform="translate(74.03,0)" d="M0,190.30303030303028v42.09090909090911" style="stroke: rgb(0, 0, 0); stroke-opacity: 0.1; stroke-width: 2px;"/></g><g class="layer-between"><g class="shapelayer"/><g class="imagelayer"/></g><path class="xlines-below"/><path class="ylines-below"/><g class="overlines-below"/><g class="xaxislayer-below"/><g class="yaxislayer-below"/><g class="overaxes-below"/><g class="overplot"><g class="x3y3" transform="translate(69,190.30303030303028)" clip-path="url(#clip6d1a3ex3y3plot)"><g class="violinlayer mlayer"><g class="trace violins" style="opacity: 0.5;"><path class="violin" d="M-535.27,20.3Q-470.82,19.91 -438.59,19.62C-406.36,19.33 -374.14,18.98 -341.91,18.56C-309.68,18.14 -277.45,17.64 -245.22,17.08C-212.99,16.53 -180.77,15.89 -148.54,15.23C-116.31,14.57 -84.09,13.83 -51.86,13.13C-19.63,12.43 12.59,11.68 44.82,11.01C77.05,10.34 109.27,9.66 141.5,9.09C173.73,8.52 205.95,8 238.18,7.6C270.41,7.2 302.64,6.89 334.87,6.67C367.1,6.46 399.32,6.35 431.55,6.31C463.78,6.27 496,6.34 528.23,6.44C560.46,6.54 592.68,6.72 624.91,6.92C657.14,7.12 689.36,7.36 721.59,7.64C753.82,7.92 786.05,8.23 818.28,8.6C850.51,8.97 882.73,9.38 914.96,9.85C947.19,10.32 979.41,10.85 1011.64,11.42C1043.87,11.99 1076.09,12.63 1108.32,13.26C1140.55,13.89 1172.77,14.57 1205,15.19C1237.23,15.81 1269.46,16.44 1301.69,16.99C1333.92,17.54 1366.14,18.05 1398.37,18.48C1430.6,18.91 1462.82,19.27 1495.05,19.57Q1527.28,19.87 1591.73,20.28L1591.73,21.81Q1527.28,22.22 1495.05,22.52C1462.82,22.82 1430.6,23.18 1398.37,23.61C1366.14,24.04 1333.92,24.55 1301.69,25.1C1269.46,25.65 1237.23,26.28 1205,26.9C1172.77,27.52 1140.55,28.2 1108.32,28.83C1076.09,29.46 1043.87,30.1 1011.64,30.67C979.41,31.24 947.19,31.77 914.96,32.24C882.73,32.71 850.51,33.12 818.28,33.49C786.05,33.86 753.82,34.17 721.59,34.45C689.36,34.73 657.14,34.97 624.91,35.17C592.68,35.37 560.46,35.55 528.23,35.65C496,35.75 463.78,35.82 431.55,35.78C399.32,35.74 367.1,35.63 334.87,35.42C302.64,35.2 270.41,34.89 238.18,34.49C205.95,34.09 173.73,33.57 141.5,33C109.27,32.43 77.05,31.76 44.82,31.09C12.59,30.42 -19.63,29.66 -51.86,28.96C-84.09,28.26 -116.31,27.53 -148.54,26.87C-180.77,26.21 -212.99,25.57 -245.22,25.01C-277.45,24.45 -309.68,23.95 -341.91,23.53C-374.14,23.11 -406.36,22.76 -438.59,22.47Q-470.82,22.18 -535.27,21.79Z" style="vector-effect: none; stroke-width: 2px; stroke: rgb(181, 181, 181); stroke-opacity: 1; fill: rgb(181, 181, 181); fill-opacity: 1;"/><path class="box" d="M451.05,24.73V17.36M261.11,24.73V17.36H836.5V24.73ZM261.11,21.05H45.52M836.5,21.05H1010.95" style="vector-effect: non-scaling-stroke; stroke-width: 2px; stroke: rgb(181, 181, 181); stroke-opacity: 1; fill: rgb(181, 181, 181); fill-opacity: 1;"/><path class="mean" d="M523.76,24.73V17.36" style="fill: none; vector-effect: non-scaling-stroke; stroke-width: 2px; stroke-dasharray: 4px, 2px; stroke: rgb(181, 181, 181); stroke-opacity: 1;"/></g></g><g class="scatterlayer mlayer"><g class="trace scatter trace0695b9" style="stroke-miterlimit: 2; opacity: 1;"><g class="fills"/><g class="errorbars"/><g class="lines"/><g class="points"><path class="point" transform="translate(45.52,21.05)" d="M2,0A2,2 0 1,1 0,-2A2,2 0 0,1 2,0Z" style="opacity: 1; stroke-width: 0px; fill: rgb(11, 121, 230); fill-opacity: 1;"/></g><g class="text"/></g><g class="trace scatter tracee5e5e4" style="stroke-miterlimit: 2; opacity: 1;"><g class="fills"/><g class="errorbars"/><g class="lines"/><g class="points"><path class="point" transform="translate(778.35,21.05)" d="M2,0A2,2 0 1,1 0,-2A2,2 0 0,1 2,0Z" style="opacity: 1; stroke-width: 0px; fill: rgb(11, 121, 230); fill-opacity: 1;"/></g><g class="text"/></g><g class="trace scatter trace9453d5" style="stroke-miterlimit: 2; opacity: 1;"><g class="fills"/><g class="errorbars"/><g class="lines"/><g class="points"><path class="point" transform="translate(451.05,21.05)" d="M2,0A2,2 0 1,1 0,-2A2,2 0 0,1 2,0Z" style="opacity: 1; stroke-width: 0px; fill: rgb(11, 121, 230); fill-opacity: 1;"/></g><g class="text"/></g><g class="trace scatter trace302a01" style="stroke-miterlimit: 2; opacity: 1;"><g class="fills"/><g class="errorbars"/><g class="lines"/><g class="points"><path class="point" transform="translate(332.97,21.05)" d="M2,0A2,2 0 1,1 0,-2A2,2 0 0,1 2,0Z" style="opacity: 1; stroke-width: 0px; fill: rgb(11, 121, 230); fill-opacity: 1;"/></g><g class="text"/></g><g class="trace scatter tracebfd231" style="stroke-miterlimit: 2; opacity: 1;"><g class="fills"/><g class="errorbars"/><g class="lines"/><g class="points"><path class="point" transform="translate(1010.95,21.05)" d="M2,0A2,2 0 1,1 0,-2A2,2 0 0,1 2,0Z" style="opacity: 1; stroke-width: 0px; fill: rgb(11, 121, 230); fill-opacity: 1;"/></g><g class="text"/></g></g></g></g><path class="xlines-above crisp" d="M0,0" style="fill: none;"/><path class="ylines-above crisp" d="M0,0" style="fill: none;"/><g class="overlines-above"/><g class="xaxislayer-above"><g class="x3tick"><text text-anchor="middle" x="0" y="242.39393939393938" transform="translate(74.03,0)" style="font-family: 'Lucida Grande', 'Open Sans', verdana, arial, sans-serif; font-size: 9px; fill: rgb(0, 0, 0); fill-opacity: 0.5; white-space: pre; opacity: 1;">0</text></g><g class="x3tick"><text text-anchor="middle" x="0" y="242.39393939393938" style="font-family: 'Lucida Grande', 'Open Sans', verdana, arial, sans-serif; font-size: 9px; fill: rgb(0, 0, 0); fill-opacity: 0.5; white-space: pre; opacity: 1;" transform="translate(212.86,0)">0.1</text></g><g class="x3tick"><text text-anchor="middle" x="0" y="242.39393939393938" style="font-family: 'Lucida Grande', 'Open Sans', verdana, arial, sans-serif; font-size: 9px; fill: rgb(0, 0, 0); fill-opacity: 0.5; white-space: pre; opacity: 1;" transform="translate(351.69,0)">0.2</text></g><g class="x3tick"><text text-anchor="middle" x="0" y="242.39393939393938" style="font-family: 'Lucida Grande', 'Open Sans', verdana, arial, sans-serif; font-size: 9px; fill: rgb(0, 0, 0); fill-opacity: 0.5; white-space: pre; opacity: 1;" transform="translate(490.53,0)">0.3</text></g><g class="x3tick"><text text-anchor="middle" x="0" y="242.39393939393938" style="font-family: 'Lucida Grande', 'Open Sans', verdana, arial, sans-serif; font-size: 9px; fill: rgb(0, 0, 0); fill-opacity: 0.5; white-space: pre; opacity: 1;" transform="translate(629.36,0)">0.4</text></g><g class="x3tick"><text text-anchor="middle" x="0" y="242.39393939393938" style="font-family: 'Lucida Grande', 'Open Sans', verdana, arial, sans-serif; font-size: 9px; fill: rgb(0, 0, 0); fill-opacity: 0.5; white-space: pre; opacity: 1;" transform="translate(768.19,0)">0.5</text></g><g class="x3tick"><text text-anchor="middle" x="0" y="242.39393939393938" style="font-family: 'Lucida Grande', 'Open Sans', verdana, arial, sans-serif; font-size: 9px; fill: rgb(0, 0, 0); fill-opacity: 0.5; white-space: pre; opacity: 1;" transform="translate(907.02,0)">0.6</text></g><g class="x3tick"><text text-anchor="middle" x="0" y="242.39393939393938" style="font-family: 'Lucida Grande', 'Open Sans', verdana, arial, sans-serif; font-size: 9px; fill: rgb(0, 0, 0); fill-opacity: 0.5; white-space: pre; opacity: 1;" transform="translate(1045.85,0)">0.7</text></g></g><g class="yaxislayer-above"><g class="y3tick"><text text-anchor="end" x="68" y="3.15" transform="translate(0,211.3530303030303)" style="font-family: 'Lucida Grande', 'Open Sans', verdana, arial, sans-serif; font-size: 9px; fill: rgb(0, 0, 0); fill-opacity: 0.5; white-space: pre; opacity: 1;">%Var  </text></g></g><g class="overaxes-above"/></g><g class="subplot x4y4"><g class="layer-subplot"><g class="shapelayer"/><g class="imagelayer"/></g><g class="minor-gridlayer"><g class="x4"/><g class="y4"/></g><g class="gridlayer"><g class="x4"><path class="x4grid crisp" transform="translate(577,0)" d="M0,260.4545454545454v42.09090909090911" style="stroke: rgb(0, 0, 0); stroke-opacity: 0.1; stroke-width: 1px;"/></g><g class="y4"><path class="y4grid crisp" transform="translate(0,281.5045454545454)" d="M69,0h1016" style="stroke: rgb(0, 0, 0); stroke-opacity: 0.1; stroke-width: 1px;"/></g></g><g class="zerolinelayer"/><g class="layer-between"><g class="shapelayer"/><g class="imagelayer"/></g><path class="xlines-below"/><path class="ylines-below"/><g class="overlines-below"/><g class="xaxislayer-below"/><g class="yaxislayer-below"/><g class="overaxes-below"/><g class="overplot"><g class="x4y4" transform="translate(69,260.4545454545454)" clip-path="url(#clip6d1a3ex4y4plot)"><g class="violinlayer mlayer"><g class="trace violins" style="opacity: 0.5;"><path class="violin" d="M508,6.31L508,35.78Z" style="vector-effect: none; stroke-width: 2px; stroke: rgb(181, 181, 181); stroke-opacity: 1; fill: rgb(181, 181, 181); fill-opacity: 1;"/><path class="box" d="M508,24.73V17.36M508,24.73V17.36H508V24.73ZM508,21.05H508M508,21.05H508" style="vector-effect: non-scaling-stroke; stroke-width: 2px; stroke: rgb(181, 181, 181); stroke-opacity: 1; fill: rgb(181, 181, 181); fill-opacity: 1;"/><path class="mean" d="M508,24.73V17.36" style="fill: none; vector-effect: non-scaling-stroke; stroke-width: 2px; stroke-dasharray: 4px, 2px; stroke: rgb(181, 181, 181); stroke-opacity: 1;"/></g></g><g class="scatterlayer mlayer"><g class="trace scatter tracef6a7e1" style="stroke-miterlimit: 2; opacity: 1;"><g class="fills"/><g class="errorbars"/><g class="lines"/><g class="points"><path class="point" transform="translate(508,21.05)" d="M2,0A2,2 0 1,1 0,-2A2,2 0 0,1 2,0Z" style="opacity: 1; stroke-width: 0px; fill: rgb(11, 121, 230); fill-opacity: 1;"/></g><g class="text"/></g><g class="trace scatter trace5bd3f8" style="stroke-miterlimit: 2; opacity: 1;"><g class="fills"/><g class="errorbars"/><g class="lines"/><g class="points"><path class="point" transform="translate(508,21.05)" d="M2,0A2,2 0 1,1 0,-2A2,2 0 0,1 2,0Z" style="opacity: 1; stroke-width: 0px; fill: rgb(11, 121, 230); fill-opacity: 1;"/></g><g class="text"/></g><g class="trace scatter tracef48ddd" style="stroke-miterlimit: 2; opacity: 1;"><g class="fills"/><g class="errorbars"/><g class="lines"/><g class="points"><path class="point" transform="translate(508,21.05)" d="M2,0A2,2 0 1,1 0,-2A2,2 0 0,1 2,0Z" style="opacity: 1; stroke-width: 0px; fill: rgb(11, 121, 230); fill-opacity: 1;"/></g><g class="text"/></g><g class="trace scatter trace92ec32" style="stroke-miterlimit: 2; opacity: 1;"><g class="fills"/><g class="errorbars"/><g class="lines"/><g class="points"><path class="point" transform="translate(508,21.05)" d="M2,0A2,2 0 1,1 0,-2A2,2 0 0,1 2,0Z" style="opacity: 1; stroke-width: 0px; fill: rgb(11, 121, 230); fill-opacity: 1;"/></g><g class="text"/></g><g class="trace scatter trace570934" style="stroke-miterlimit: 2; opacity: 1;"><g class="fills"/><g class="errorbars"/><g class="lines"/><g class="points"><path class="point" transform="translate(508,21.05)" d="M2,0A2,2 0 1,1 0,-2A2,2 0 0,1 2,0Z" style="opacity: 1; stroke-width: 0px; fill: rgb(11, 121, 230); fill-opacity: 1;"/></g><g class="text"/></g></g></g></g><path class="xlines-above crisp" d="M0,0" style="fill: none;"/><path class="ylines-above crisp" d="M0,0" style="fill: none;"/><g class="overlines-above"/><g class="xaxislayer-above"><g class="x4tick"><text text-anchor="middle" x="0" y="312.5454545454545" transform="translate(577,0)" style="font-family: 'Lucida Grande', 'Open Sans', verdana, arial, sans-serif; font-size: 9px; fill: rgb(0, 0, 0); fill-opacity: 0.5; white-space: pre; opacity: 1;">Yes</text></g></g><g class="yaxislayer-above"><g class="y4tick"><text text-anchor="end" x="68" y="3.15" transform="translate(0,281.5045454545454)" style="font-family: 'Lucida Grande', 'Open Sans', verdana, arial, sans-serif; font-size: 9px; fill: rgb(0, 0, 0); fill-opacity: 0.5; white-space: pre; opacity: 1;">RES  </text></g></g><g class="overaxes-above"/></g><g class="subplot x5y5"><g class="layer-subplot"><g class="shapelayer"/><g class="imagelayer"/></g><g class="minor-gridlayer"><g class="x5"/><g class="y5"/></g><g class="gridlayer"><g class="x5"><path class="x5grid crisp" transform="translate(577,0)" d="M0,330.6060606060606v42.09090909090908" style="stroke: rgb(0, 0, 0); stroke-opacity: 0.1; stroke-width: 1px;"/></g><g class="y5"><path class="y5grid crisp" transform="translate(0,351.65606060606063)" d="M69,0h1016" style="stroke: rgb(0, 0, 0); stroke-opacity: 0.1; stroke-width: 1px;"/></g></g><g class="zerolinelayer"/><g class="layer-between"><g class="shapelayer"/><g class="imagelayer"/></g><path class="xlines-below"/><path class="ylines-below"/><g class="overlines-below"/><g class="xaxislayer-below"/><g class="yaxislayer-below"/><g class="overaxes-below"/><g class="overplot"><g class="x5y5" transform="translate(69,330.6060606060606)" clip-path="url(#clip6d1a3ex5y5plot)"><g class="violinlayer mlayer"><g class="trace violins" style="opacity: 0.5;"><path class="violin" d="M508,6.31L508,35.78Z" style="vector-effect: none; stroke-width: 2px; stroke: rgb(181, 181, 181); stroke-opacity: 1; fill: rgb(181, 181, 181); fill-opacity: 1;"/><path class="box" d="M508,24.73V17.36M508,24.73V17.36H508V24.73ZM508,21.05H508M508,21.05H508" style="vector-effect: non-scaling-stroke; stroke-width: 2px; stroke: rgb(181, 181, 181); stroke-opacity: 1; fill: rgb(181, 181, 181); fill-opacity: 1;"/><path class="mean" d="M508,24.73V17.36" style="fill: none; vector-effect: non-scaling-stroke; stroke-width: 2px; stroke-dasharray: 4px, 2px; stroke: rgb(181, 181, 181); stroke-opacity: 1;"/></g></g><g class="scatterlayer mlayer"><g class="trace scatter trace363418" style="stroke-miterlimit: 2; opacity: 1;"><g class="fills"/><g class="errorbars"/><g class="lines"/><g class="points"><path class="point" transform="translate(508,21.05)" d="M2,0A2,2 0 1,1 0,-2A2,2 0 0,1 2,0Z" style="opacity: 1; stroke-width: 0px; fill: rgb(11, 121, 230); fill-opacity: 1;"/></g><g class="text"/></g><g class="trace scatter traced5c1c6" style="stroke-miterlimit: 2; opacity: 1;"><g class="fills"/><g class="errorbars"/><g class="lines"/><g class="points"><path class="point" transform="translate(508,21.05)" d="M2,0A2,2 0 1,1 0,-2A2,2 0 0,1 2,0Z" style="opacity: 1; stroke-width: 0px; fill: rgb(11, 121, 230); fill-opacity: 1;"/></g><g class="text"/></g></g></g></g><path class="xlines-above crisp" d="M0,0" style="fill: none;"/><path class="ylines-above crisp" d="M0,0" style="fill: none;"/><g class="overlines-above"/><g class="xaxislayer-above"><g class="x5tick"><text text-anchor="middle" x="0" y="382.6969696969697" transform="translate(577,0)" style="font-family: 'Lucida Grande', 'Open Sans', verdana, arial, sans-serif; font-size: 9px; fill: rgb(0, 0, 0); fill-opacity: 0.5; white-space: pre; opacity: 1;">R</text></g></g><g class="yaxislayer-above"><g class="y5tick"><text text-anchor="end" x="68" y="3.15" transform="translate(0,351.65606060606063)" style="font-family: 'Lucida Grande', 'Open Sans', verdana, arial, sans-serif; font-size: 9px; fill: rgb(0, 0, 0); fill-opacity: 0.5; white-space: pre; opacity: 1;">Cidofovir  </text></g></g><g class="overaxes-above"/></g><g class="subplot x6y6"><g class="layer-subplot"><g class="shapelayer"/><g class="imagelayer"/></g><g class="minor-gridlayer"><g class="x6"/><g class="y6"/></g><g class="gridlayer"><g class="x6"><path class="x6grid crisp" transform="translate(577,0)" d="M0,400.75757575757575v42.09090909090909" style="stroke: rgb(0, 0, 0); stroke-opacity: 0.1; stroke-width: 1px;"/></g><g class="y6"><path class="y6grid crisp" transform="translate(0,421.80757575757576)" d="M69,0h1016" style="stroke: rgb(0, 0, 0); stroke-opacity: 0.1; stroke-width: 1px;"/></g></g><g class="zerolinelayer"/><g class="layer-between"><g class="shapelayer"/><g class="imagelayer"/></g><path class="xlines-below"/><path class="ylines-below"/><g class="overlines-below"/><g class="xaxislayer-below"/><g class="yaxislayer-below"/><g class="overaxes-below"/><g class="overplot"><g class="x6y6" transform="translate(69,400.75757575757575)" clip-path="url(#clip6d1a3ex6y6plot)"><g class="violinlayer mlayer"><g class="trace violins" style="opacity: 0.5;"><path class="violin" d="M508,6.31L508,35.78Z" style="vector-effect: none; stroke-width: 2px; stroke: rgb(181, 181, 181); stroke-opacity: 1; fill: rgb(181, 181, 181); fill-opacity: 1;"/><path class="box" d="M508,24.73V17.36M508,24.73V17.36H508V24.73ZM508,21.05H508M508,21.05H508" style="vector-effect: non-scaling-stroke; stroke-width: 2px; stroke: rgb(181, 181, 181); stroke-opacity: 1; fill: rgb(181, 181, 181); fill-opacity: 1;"/><path class="mean" d="M508,24.73V17.36" style="fill: none; vector-effect: non-scaling-stroke; stroke-width: 2px; stroke-dasharray: 4px, 2px; stroke: rgb(181, 181, 181); stroke-opacity: 1;"/></g></g><g class="scatterlayer mlayer"><g class="trace scatter trace5cfec1" style="stroke-miterlimit: 2; opacity: 1;"><g class="fills"/><g class="errorbars"/><g class="lines"/><g class="points"><path class="point" transform="translate(508,21.05)" d="M2,0A2,2 0 1,1 0,-2A2,2 0 0,1 2,0Z" style="opacity: 1; stroke-width: 0px; fill: rgb(11, 121, 230); fill-opacity: 1;"/></g><g class="text"/></g><g class="trace scatter trace8ce32a" style="stroke-miterlimit: 2; opacity: 1;"><g class="fills"/><g class="errorbars"/><g class="lines"/><g class="points"><path class="point" transform="translate(508,21.05)" d="M2,0A2,2 0 1,1 0,-2A2,2 0 0,1 2,0Z" style="opacity: 1; stroke-width: 0px; fill: rgb(11, 121, 230); fill-opacity: 1;"/></g><g class="text"/></g><g class="trace scatter trace6e80ff" style="stroke-miterlimit: 2; opacity: 1;"><g class="fills"/><g class="errorbars"/><g class="lines"/><g class="points"><path class="point" transform="translate(508,21.05)" d="M2,0A2,2 0 1,1 0,-2A2,2 0 0,1 2,0Z" style="opacity: 1; stroke-width: 0px; fill: rgb(11, 121, 230); fill-opacity: 1;"/></g><g class="text"/></g><g class="trace scatter trace9d5a04" style="stroke-miterlimit: 2; opacity: 1;"><g class="fills"/><g class="errorbars"/><g class="lines"/><g class="points"><path class="point" transform="translate(508,21.05)" d="M2,0A2,2 0 1,1 0,-2A2,2 0 0,1 2,0Z" style="opacity: 1; stroke-width: 0px; fill: rgb(11, 121, 230); fill-opacity: 1;"/></g><g class="text"/></g><g class="trace scatter trace337908" style="stroke-miterlimit: 2; opacity: 1;"><g class="fills"/><g class="errorbars"/><g class="lines"/><g class="points"><path class="point" transform="translate(508,21.05)" d="M2,0A2,2 0 1,1 0,-2A2,2 0 0,1 2,0Z" style="opacity: 1; stroke-width: 0px; fill: rgb(11, 121, 230); fill-opacity: 1;"/></g><g class="text"/></g></g></g></g><path class="xlines-above crisp" d="M0,0" style="fill: none;"/><path class="ylines-above crisp" d="M0,0" style="fill: none;"/><g class="overlines-above"/><g class="xaxislayer-above"><g class="x6tick"><text text-anchor="middle" x="0" y="452.8484848484849" transform="translate(577,0)" style="font-family: 'Lucida Grande', 'Open Sans', verdana, arial, sans-serif; font-size: 9px; fill: rgb(0, 0, 0); fill-opacity: 0.5; white-space: pre; opacity: 1;">R</text></g></g><g class="yaxislayer-above"><g class="y6tick"><text text-anchor="end" x="68" y="3.15" transform="translate(0,421.80757575757576)" style="font-family: 'Lucida Grande', 'Open Sans', verdana, arial, sans-serif; font-size: 9px; fill: rgb(0, 0, 0); fill-opacity: 0.5; white-space: pre; opacity: 1;">Ganciclovir  </text></g></g><g class="overaxes-above"/></g><g class="subplot x7y7"><g class="layer-subplot"><g class="shapelayer"/><g class="imagelayer"/></g><g class="minor-gridlayer"><g class="x7"/><g class="y7"/></g><g class="gridlayer"><g class="x7"><path class="x7grid crisp" transform="translate(577,0)" d="M0,470.9090909090909v42.09090909090909" style="stroke: rgb(0, 0, 0); stroke-opacity: 0.1; stroke-width: 1px;"/></g><g class="y7"><path class="y7grid crisp" transform="translate(0,491.9590909090909)" d="M69,0h1016" style="stroke: rgb(0, 0, 0); stroke-opacity: 0.1; stroke-width: 1px;"/></g></g><g class="zerolinelayer"/><g class="layer-between"><g class="shapelayer"/><g class="imagelayer"/></g><path class="xlines-below"/><path class="ylines-below"/><g class="overlines-below"/><g class="xaxislayer-below"/><g class="yaxislayer-below"/><g class="overaxes-below"/><g class="overplot"><g class="x7y7" transform="translate(69,470.9090909090909)" clip-path="url(#clip6d1a3ex7y7plot)"><g class="violinlayer mlayer"><g class="trace violins" style="opacity: 0.5;"><path class="violin" d="M508,6.31L508,35.78Z" style="vector-effect: none; stroke-width: 2px; stroke: rgb(181, 181, 181); stroke-opacity: 1; fill: rgb(181, 181, 181); fill-opacity: 1;"/><path class="box" d="M508,24.73V17.36M508,24.73V17.36H508V24.73ZM508,21.05H508M508,21.05H508" style="vector-effect: non-scaling-stroke; stroke-width: 2px; stroke: rgb(181, 181, 181); stroke-opacity: 1; fill: rgb(181, 181, 181); fill-opacity: 1;"/><path class="mean" d="M508,24.73V17.36" style="fill: none; vector-effect: non-scaling-stroke; stroke-width: 2px; stroke-dasharray: 4px, 2px; stroke: rgb(181, 181, 181); stroke-opacity: 1;"/></g></g><g class="scatterlayer mlayer"><g class="trace scatter trace031777" style="stroke-miterlimit: 2; opacity: 1;"><g class="fills"/><g class="errorbars"/><g class="lines"/><g class="points"><path class="point" transform="translate(508,21.05)" d="M2,0A2,2 0 1,1 0,-2A2,2 0 0,1 2,0Z" style="opacity: 1; stroke-width: 0px; fill: rgb(11, 121, 230); fill-opacity: 1;"/></g><g class="text"/></g><g class="trace scatter tracee0b7a7" style="stroke-miterlimit: 2; opacity: 1;"><g class="fills"/><g class="errorbars"/><g class="lines"/><g class="points"><path class="point" transform="translate(508,21.05)" d="M2,0A2,2 0 1,1 0,-2A2,2 0 0,1 2,0Z" style="opacity: 1; stroke-width: 0px; fill: rgb(11, 121, 230); fill-opacity: 1;"/></g><g class="text"/></g><g class="trace scatter trace5cf5df" style="stroke-miterlimit: 2; opacity: 1;"><g class="fills"/><g class="errorbars"/><g class="lines"/><g class="points"><path class="point" transform="translate(508,21.05)" d="M2,0A2,2 0 1,1 0,-2A2,2 0 0,1 2,0Z" style="opacity: 1; stroke-width: 0px; fill: rgb(11, 121, 230); fill-opacity: 1;"/></g><g class="text"/></g><g class="trace scatter trace2816f3" style="stroke-miterlimit: 2; opacity: 1;"><g class="fills"/><g class="errorbars"/><g class="lines"/><g class="points"><path class="point" transform="translate(508,21.05)" d="M2,0A2,2 0 1,1 0,-2A2,2 0 0,1 2,0Z" style="opacity: 1; stroke-width: 0px; fill: rgb(11, 121, 230); fill-opacity: 1;"/></g><g class="text"/></g><g class="trace scatter trace6aea08" style="stroke-miterlimit: 2; opacity: 1;"><g class="fills"/><g class="errorbars"/><g class="lines"/><g class="points"><path class="point" transform="translate(508,21.05)" d="M2,0A2,2 0 1,1 0,-2A2,2 0 0,1 2,0Z" style="opacity: 1; stroke-width: 0px; fill: rgb(11, 121, 230); fill-opacity: 1;"/></g><g class="text"/></g></g></g></g><path class="xlines-above crisp" d="M0,0" style="fill: none;"/><path class="ylines-above crisp" d="M0,0" style="fill: none;"/><g class="overlines-above"/><g class="xaxislayer-above"><g class="x7tick"><text text-anchor="middle" x="0" y="523" transform="translate(577,0)" style="font-family: 'Lucida Grande', 'Open Sans', verdana, arial, sans-serif; font-size: 9px; fill: rgb(0, 0, 0); fill-opacity: 0.5; white-space: pre; opacity: 1;">https://www.eurofins-viracor.com/media/pgonfbxk/mm-0273-rev8-1121cmv-avr-mutations-references-final.pdf</text></g></g><g class="yaxislayer-above"><g class="y7tick"><text text-anchor="end" x="68" y="3.15" transform="translate(0,491.9590909090909)" style="font-family: 'Lucida Grande', 'Open Sans', verdana, arial, sans-serif; font-size: 9px; fill: rgb(0, 0, 0); fill-opacity: 0.5; white-space: pre; opacity: 1;">Reference  </text></g></g><g class="overaxes-above"/></g></g><g class="polarlayer"/><g class="smithlayer"/><g class="ternarylayer"/><g class="geolayer"/><g class="funnelarealayer"/><g class="pielayer"/><g class="iciclelayer"/><g class="treemaplayer"/><g class="sunburstlayer"/><g class="glimages"/><defs id="topdefs-6d1a3e"><g class="clips"/></defs><g class="layer-above"><g class="imagelayer"/><g class="shapelayer"/></g><g class="infolayer"><g class="g-gtitle"><text class="gtitle" x="550" y="25" text-anchor="middle" dy="0em" style="opacity: 1; font-family: 'Lucida Grande', 'Open Sans', verdana, arial, sans-serif; font-size: 20px; fill: rgb(42, 63, 95); fill-opacity: 1; white-space: pre;"><tspan class="line" dy="0em" x="550" y="25">Drug Resistance</tspan><tspan class="line" dy="1.3em" x="550" y="25">​<tspan style="font-size:70%" dy="-0.6em">5 samples</tspan><tspan dy="0.42em">​</tspan></tspan></text></g><g class="g-xtitle"/><g class="g-x2title"/><g class="g-x3title"/><g class="g-x4title"/><g class="g-x5title"/><g class="g-x6title"/><g class="g-x7title"/><g class="g-ytitle"/><g class="g-y2title"/><g class="g-y3title"/><g class="g-y4title"/><g class="g-y5title"/><g class="g-y6title"/><g class="g-y7title"/></g></svg>