<svg class="main-svg" xmlns="http://www.w3.org/2000/svg" xmlns:xlink="http://www.w3.org/1999/xlink" width="2200" height="406" style="" viewBox="0 0 1100 203"><rect x="0" y="0" width="1100" height="203" style="fill: rgb(255, 255, 255); fill-opacity: 1;"/><defs id="defs-4b9bdc"><g class="clips"><clipPath id="clip4b9bdcxyplot" class="plotclip"><rect width="1025" height="42.375"/></clipPath><clipPath id="clip4b9bdcx2y2plot" class="plotclip"><rect width="1025" height="42.375"/></clipPath><clipPath class="axesclip" id="clip4b9bdcx"><rect x="60" y="0" width="1025" height="203"/></clipPath><clipPath class="axesclip" id="clip4b9bdcy"><rect x="0" y="50" width="1100" height="42.375"/></clipPath><clipPath class="axesclip" id="clip4b9bdcxy"><rect x="60" y="50" width="1025" height="42.375"/></clipPath><clipPath class="axesclip" id="clip4b9bdcy2"><rect x="0" y="120.625" width="1100" height="42.375"/></clipPath><clipPath class="axesclip" id="clip4b9bdcxy2"><rect x="60" y="120.625" width="1025" height="42.375"/></clipPath><clipPath class="axesclip" id="clip4b9bdcx2"><rect x="60" y="0" width="1025" height="203"/></clipPath><clipPath class="axesclip" id="clip4b9bdcx2y"><rect x="60" y="50" width="1025" height="42.375"/></clipPath><clipPath class="axesclip" id="clip4b9bdcx2y2"><rect x="60" y="120.625" width="1025" height="42.375"/></clipPath></g><g class="gradients"/><g class="patterns"/></defs><g class="bglayer"/><g class="layer-below"><g class="imagelayer"/><g class="shapelayer"/></g><g class="cartesianlayer"><g class="subplot xy"><g class="layer-subplot"><g class="shapelayer"/><g class="imagelayer"/></g><g class="minor-gridlayer"><g class="x"/><g class="y"/></g><g class="gridlayer"><g class="x"><path class="xgrid crisp" transform="translate(293.64,0)" d="M0,50v42.375" style="stroke: rgb(0, 0, 0); stroke-opacity: 0.1; stroke-width: 1px;"/><path class="xgrid crisp" transform="translate(522.2,0)" d="M0,50v42.375" style="stroke: rgb(0, 0, 0); stroke-opacity: 0.1; stroke-width: 1px;"/><path class="xgrid crisp" transform="translate(750.77,0)" d="M0,50v42.375" style="stroke: rgb(0, 0, 0); stroke-opacity: 0.1; stroke-width: 1px;"/><path class="xgrid crisp" transform="translate(979.33,0)" d="M0,50v42.375" style="stroke: rgb(0, 0, 0); stroke-opacity: 0.1; stroke-width: 1px;"/></g><g class="y"><path class="ygrid crisp" transform="translate(0,71.19)" d="M60,0h1025" style="stroke: rgb(0, 0, 0); stroke-opacity: 0.1; stroke-width: 1px;"/></g></g><g class="zerolinelayer"><path class="xzl zl crisp" transform="translate(65.07,0)" d="M0,50v42.375" style="stroke: rgb(0, 0, 0); stroke-opacity: 0.1; stroke-width: 2px;"/></g><g class="layer-between"><g class="shapelayer"/><g class="imagelayer"/></g><path class="xlines-below"/><path class="ylines-below"/><g class="overlines-below"/><g class="xaxislayer-below"/><g class="yaxislayer-below"/><g class="overaxes-below"/><g class="overplot"><g class="xy" transform="translate(60,50)" clip-path="url(#clip4b9bdcxyplot)"><g class="violinlayer mlayer"><g class="trace violins" style="opacity: 0.5;"><path class="violin" d="M-723.33,20.12Q-638.5,19.59 -596.09,19.22C-553.68,18.85 -511.27,18.4 -468.86,17.88C-426.45,17.36 -384.03,16.74 -341.62,16.09C-299.21,15.44 -256.79,14.69 -214.38,13.97C-171.97,13.24 -129.55,12.46 -87.14,11.74C-44.73,11.02 -2.31,10.29 40.1,9.67C82.51,9.05 124.93,8.46 167.34,8C209.75,7.54 252.17,7.16 294.58,6.89C336.99,6.62 379.41,6.45 421.82,6.36C464.23,6.27 506.65,6.29 549.06,6.36C591.47,6.43 633.89,6.59 676.3,6.81C718.71,7.03 761.13,7.32 803.54,7.67C845.95,8.02 888.36,8.44 930.77,8.92C973.18,9.4 1015.6,9.95 1058.01,10.53C1100.42,11.12 1142.84,11.78 1185.25,12.43C1227.66,13.08 1270.08,13.79 1312.49,14.45C1354.9,15.11 1397.32,15.78 1439.73,16.38C1482.14,16.98 1524.56,17.54 1566.97,18.03C1609.38,18.51 1651.8,18.94 1694.21,19.29Q1736.62,19.64 1821.45,20.15L1821.45,22.23Q1736.62,22.74 1694.21,23.09C1651.8,23.44 1609.38,23.86 1566.97,24.34C1524.56,24.83 1482.14,25.4 1439.73,26C1397.32,26.6 1354.9,27.27 1312.49,27.93C1270.08,28.59 1227.66,29.3 1185.25,29.95C1142.84,30.6 1100.42,31.25 1058.01,31.84C1015.6,32.42 973.18,32.98 930.77,33.46C888.36,33.94 845.95,34.35 803.54,34.7C761.13,35.05 718.71,35.34 676.3,35.56C633.89,35.78 591.47,35.94 549.06,36.02C506.65,36.1 464.23,36.11 421.82,36.02C379.41,35.93 336.99,35.76 294.58,35.49C252.17,35.21 209.75,34.83 167.34,34.37C124.93,33.91 82.51,33.33 40.1,32.71C-2.31,32.09 -44.73,31.35 -87.14,30.63C-129.55,29.91 -171.97,29.13 -214.38,28.4C-256.79,27.68 -299.21,26.93 -341.62,26.28C-384.03,25.63 -426.45,25.02 -468.86,24.5C-511.27,23.98 -553.68,23.53 -596.09,23.16Q-638.5,22.79 -723.33,22.26Z" style="vector-effect: none; stroke-width: 2px; stroke: rgb(181, 181, 181); stroke-opacity: 1; fill: rgb(181, 181, 181); fill-opacity: 1;"/><path class="box" d="M507.92,24.9V17.48M185.64,24.9V17.48H891.9V24.9ZM185.64,21.19H78.21M891.9,21.19H1019.9" style="vector-effect: non-scaling-stroke; stroke-width: 2px; stroke: rgb(181, 181, 181); stroke-opacity: 1; fill: rgb(181, 181, 181); fill-opacity: 1;"/><path class="mean" d="M535.34,24.9V17.48" style="fill: none; vector-effect: non-scaling-stroke; stroke-width: 2px; stroke-dasharray: 4px, 2px; stroke: rgb(181, 181, 181); stroke-opacity: 1;"/></g></g><g class="scatterlayer mlayer"><g class="trace scatter trace49d752" style="stroke-miterlimit: 2; opacity: 1;"><g class="fills"/><g class="errorbars"/><g class="lines"/><g class="points"><path class="point" transform="translate(1019.9,21.19)" d="M2,0A2,2 0 1,1 0,-2A2,2 0 0,1 2,0Z" style="opacity: 1; stroke-width: 0px; fill: rgb(11, 121, 230); fill-opacity: 1;"/></g><g class="text"/></g><g class="trace scatter trace9460e9" style="stroke-miterlimit: 2; opacity: 1;"><g class="fills"/><g class="errorbars"/><g class="lines"/><g class="points"><path class="point" transform="translate(78.21,21.19)" d="M2,0A2,2 0 1,1 0,-2A2,2 0 0,1 2,0Z" style="opacity: 1; stroke-width: 0px; fill: rgb(11, 121, 230); fill-opacity: 1;"/></g><g class="text"/></g><g class="trace scatter tracea50765" style="stroke-miterlimit: 2; opacity: 1;"><g class="fills"/><g class="errorbars"/><g class="lines"/><g class="points"><path class="point" transform="translate(507.92,21.19)" d="M2,0A2,2 0 1,1 0,-2A2,2 0 0,1 2,0Z" style="opacity: 1; stroke-width: 0px; fill: rgb(11, 121, 230); fill-opacity: 1;"/></g><g class="text"/></g></g></g></g><path class="xlines-above crisp" d="M0,0" style="fill: none;"/><path class="ylines-above crisp" d="M0,0" style="fill: none;"/><g class="overlines-above"/><g class="xaxislayer-above"><g class="xtick"><text text-anchor="middle" x="0" y="102.375" transform="translate(65.07,0)" style="font-family: 'Lucida Grande', 'Open Sans', verdana, arial, sans-serif; font-size: 9px; fill: rgb(0, 0, 0); fill-opacity: 0.5; white-space: pre; opacity: 1;">0</text></g><g class="xtick"><text text-anchor="middle" x="0" y="102.375" style="font-family: 'Lucida Grande', 'Open Sans', verdana, arial, sans-serif; font-size: 9px; fill: rgb(0, 0, 0); fill-opacity: 0.5; white-space: pre; opacity: 1;" transform="translate(293.64,0)">50</text></g><g class="xtick"><text text-anchor="middle" x="0" y="102.375" style="font-family: 'Lucida Grande', 'Open Sans', verdana, arial, sans-serif; font-size: 9px; fill: rgb(0, 0, 0); fill-opacity: 0.5; white-space: pre; opacity: 1;" transform="translate(522.2,0)">100</text></g><g class="xtick"><text text-anchor="middle" x="0" y="102.375" style="font-family: 'Lucida Grande', 'Open Sans', verdana, arial, sans-serif; font-size: 9px; fill: rgb(0, 0, 0); fill-opacity: 0.5; white-space: pre; opacity: 1;" transform="translate(750.77,0)">150</text></g><g class="xtick"><text text-anchor="middle" x="0" y="102.375" style="font-family: 'Lucida Grande', 'Open Sans', verdana, arial, sans-serif; font-size: 9px; fill: rgb(0, 0, 0); fill-opacity: 0.5; white-space: pre; opacity: 1;" transform="translate(979.33,0)">200</text></g></g><g class="yaxislayer-above"><g class="ytick"><text text-anchor="end" x="59" y="3.15" transform="translate(0,71.19)" style="font-family: 'Lucida Grande', 'Open Sans', verdana, arial, sans-serif; font-size: 9px; fill: rgb(0, 0, 0); fill-opacity: 0.5; white-space: pre; opacity: 1;">Count  </text></g></g><g class="overaxes-above"/></g><g class="subplot x2y2"><g class="layer-subplot"><g class="shapelayer"/><g class="imagelayer"/></g><g class="minor-gridlayer"><g class="x2"/><g class="y2"/></g><g class="gridlayer"><g class="x2"><path class="x2grid crisp" transform="translate(401.68,0)" d="M0,120.625v42.375" style="stroke: rgb(0, 0, 0); stroke-opacity: 0.1; stroke-width: 1px;"/><path class="x2grid crisp" transform="translate(572.5,0)" d="M0,120.625v42.375" style="stroke: rgb(0, 0, 0); stroke-opacity: 0.1; stroke-width: 1px;"/><path class="x2grid crisp" transform="translate(743.32,0)" d="M0,120.625v42.375" style="stroke: rgb(0, 0, 0); stroke-opacity: 0.1; stroke-width: 1px;"/></g><g class="y2"><path class="y2grid crisp" transform="translate(0,141.815)" d="M60,0h1025" style="stroke: rgb(0, 0, 0); stroke-opacity: 0.1; stroke-width: 1px;"/></g></g><g class="zerolinelayer"/><g class="layer-between"><g class="shapelayer"/><g class="imagelayer"/></g><path class="xlines-below"/><path class="ylines-below"/><g class="overlines-below"/><g class="xaxislayer-below"/><g class="yaxislayer-below"/><g class="overaxes-below"/><g class="overplot"><g class="x2y2" transform="translate(60,120.625)" clip-path="url(#clip4b9bdcx2y2plot)"><g class="violinlayer mlayer"><g class="trace violins" style="opacity: 0.5;"><path class="violin" d="M51.25,20.14Q82,19.62 97.37,19.26C112.75,18.9 128.13,18.47 143.5,17.97C158.88,17.47 174.25,16.88 189.62,16.26C205,15.64 220.37,14.93 235.75,14.24C251.13,13.55 266.5,12.81 281.88,12.12C297.25,11.44 312.62,10.74 328,10.13C343.37,9.52 358.75,8.95 374.13,8.48C389.5,8.01 404.87,7.61 420.25,7.29C435.62,6.98 451,6.74 466.38,6.59C481.75,6.44 497.13,6.36 512.5,6.36C527.88,6.36 543.25,6.43 558.63,6.59C574,6.75 589.38,6.98 604.75,7.29C620.13,7.61 635.51,8.01 650.88,8.48C666.26,8.95 681.63,9.52 697,10.13C712.38,10.74 727.75,11.43 743.13,12.12C758.5,12.8 773.88,13.55 789.25,14.24C804.63,14.93 820,15.64 835.38,16.26C850.75,16.88 866.12,17.47 881.5,17.97C896.87,18.47 912.25,18.9 927.63,19.26Q943,19.62 973.75,20.14L973.75,22.24Q943,22.75 927.63,23.11C912.25,23.47 896.87,23.91 881.5,24.41C866.12,24.91 850.75,25.5 835.38,26.12C820,26.74 804.63,27.45 789.25,28.14C773.88,28.83 758.5,29.58 743.13,30.26C727.75,30.94 712.38,31.63 697,32.24C681.63,32.84 666.26,33.42 650.88,33.89C635.51,34.36 620.13,34.76 604.75,35.08C589.38,35.4 574,35.63 558.63,35.79C543.25,35.95 527.88,36.02 512.5,36.02C497.13,36.02 481.75,35.95 466.38,35.79C451,35.63 435.63,35.4 420.25,35.08C404.88,34.76 389.5,34.36 374.13,33.89C358.75,33.42 343.37,32.84 328,32.24C312.62,31.63 297.25,30.94 281.88,30.26C266.5,29.58 251.13,28.83 235.75,28.14C220.37,27.45 205,26.74 189.62,26.12C174.25,25.5 158.88,24.91 143.5,24.41C128.13,23.91 112.75,23.47 97.37,23.11Q82,22.75 51.25,22.24Z" style="vector-effect: none; stroke-width: 2px; stroke: rgb(181, 181, 181); stroke-opacity: 1; fill: rgb(181, 181, 181); fill-opacity: 1;"/><path class="box" d="M512.5,24.9V17.48M384.38,24.9V17.48H640.62V24.9ZM384.38,21.19H341.68M640.62,21.19H683.32" style="vector-effect: non-scaling-stroke; stroke-width: 2px; stroke: rgb(181, 181, 181); stroke-opacity: 1; fill: rgb(181, 181, 181); fill-opacity: 1;"/><path class="mean" d="M512.5,24.9V17.48" style="fill: none; vector-effect: non-scaling-stroke; stroke-width: 2px; stroke-dasharray: 4px, 2px; stroke: rgb(181, 181, 181); stroke-opacity: 1;"/></g></g><g class="scatterlayer mlayer"><g class="trace scatter tracea6dbc0" style="stroke-miterlimit: 2; opacity: 1;"><g class="fills"/><g class="errorbars"/><g class="lines"/><g class="points"><path class="point" transform="translate(341.68,21.19)" d="M2,0A2,2 0 1,1 0,-2A2,2 0 0,1 2,0Z" style="opacity: 1; stroke-width: 0px; fill: rgb(11, 121, 230); fill-opacity: 1;"/></g><g class="text"/></g><g class="trace scatter tracedb11c6" style="stroke-miterlimit: 2; opacity: 1;"><g class="fills"/><g class="errorbars"/><g class="lines"/><g class="points"><path class="point" transform="translate(512.5,21.19)" d="M2,0A2,2 0 1,1 0,-2A2,2 0 0,1 2,0Z" style="opacity: 1; stroke-width: 0px; fill: rgb(11, 121, 230); fill-opacity: 1;"/></g><g class="text"/></g><g class="trace scatter trace3898c3" style="stroke-miterlimit: 2; opacity: 1;"><g class="fills"/><g class="errorbars"/><g class="lines"/><g class="points"><path class="point" transform="translate(683.32,21.19)" d="M2,0A2,2 0 1,1 0,-2A2,2 0 0,1 2,0Z" style="opacity: 1; stroke-width: 0px; fill: rgb(11, 121, 230); fill-opacity: 1;"/></g><g class="text"/></g></g></g></g><path class="xlines-above crisp" d="M0,0" style="fill: none;"/><path class="ylines-above crisp" d="M0,0" style="fill: none;"/><g class="overlines-above"/><g class="xaxislayer-above"><g class="x2tick"><text text-anchor="middle" x="0" y="173" transform="translate(401.68,0)" style="font-family: 'Lucida Grande', 'Open Sans', verdana, arial, sans-serif; font-size: 9px; fill: rgb(0, 0, 0); fill-opacity: 0.5; white-space: pre; opacity: 1;">63.8%</text></g><g class="x2tick"><text text-anchor="middle" x="0" y="173" transform="translate(572.5,0)" style="font-family: 'Lucida Grande', 'Open Sans', verdana, arial, sans-serif; font-size: 9px; fill: rgb(0, 0, 0); fill-opacity: 0.5; white-space: pre; opacity: 1;">4.6%</text></g><g class="x2tick"><text text-anchor="middle" x="0" y="173" transform="translate(743.32,0)" style="font-family: 'Lucida Grande', 'Open Sans', verdana, arial, sans-serif; font-size: 9px; fill: rgb(0, 0, 0); fill-opacity: 0.5; white-space: pre; opacity: 1;">31.6%</text></g></g><g class="yaxislayer-above"><g class="y2tick"><text text-anchor="end" x="59" y="3.15" transform="translate(0,141.815)" style="font-family: 'Lucida Grande', 'Open Sans', verdana, arial, sans-serif; font-size: 9px; fill: rgb(0, 0, 0); fill-opacity: 0.5; white-space: pre; opacity: 1;">Percent  </text></g></g><g class="overaxes-above"/></g></g><g class="polarlayer"/><g class="smithlayer"/><g class="ternarylayer"/><g class="geolayer"/><g class="funnelarealayer"/><g class="pielayer"/><g class="iciclelayer"/><g class="treemaplayer"/><g class="sunburstlayer"/><g class="glimages"/><defs id="topdefs-4b9bdc"><g class="clips"/></defs><g class="layer-above"><g class="imagelayer"/><g class="shapelayer"/></g><g class="infolayer"><g class="g-gtitle"><text class="gtitle" x="550" y="25" text-anchor="middle" dy="0em" style="opacity: 1; font-family: 'Lucida Grande', 'Open Sans', verdana, arial, sans-serif; font-size: 20px; fill: rgb(42, 63, 95); fill-opacity: 1; white-space: pre;"><tspan class="line" dy="0em" x="550" y="25">Variant by Functional Class</tspan><tspan class="line" dy="1.3em" x="550" y="25">​<tspan style="font-size:70%" dy="-0.6em">3 samples</tspan><tspan dy="0.42em">​</tspan></tspan></text></g><g class="g-xtitle"/><g class="g-x2title"/><g class="g-ytitle"/><g class="g-y2title"/></g></svg>