<svg class="main-svg" xmlns="http://www.w3.org/2000/svg" xmlns:xlink="http://www.w3.org/1999/xlink" width="2200" height="406" style="" viewBox="0 0 1100 203"><rect x="0" y="0" width="1100" height="203" style="fill: rgb(255, 255, 255); fill-opacity: 1;"/><defs id="defs-3dd8bb"><g class="clips"><clipPath id="clip3dd8bbxyplot" class="plotclip"><rect width="1016" height="42.375"/></clipPath><clipPath id="clip3dd8bbx2y2plot" class="plotclip"><rect width="1016" height="42.375"/></clipPath><clipPath class="axesclip" id="clip3dd8bbx"><rect x="69" y="0" width="1016" height="203"/></clipPath><clipPath class="axesclip" id="clip3dd8bby"><rect x="0" y="50" width="1100" height="42.375"/></clipPath><clipPath class="axesclip" id="clip3dd8bbxy"><rect x="69" y="50" width="1016" height="42.375"/></clipPath><clipPath class="axesclip" id="clip3dd8bby2"><rect x="0" y="120.625" width="1100" height="42.375"/></clipPath><clipPath class="axesclip" id="clip3dd8bbxy2"><rect x="69" y="120.625" width="1016" height="42.375"/></clipPath><clipPath class="axesclip" id="clip3dd8bbx2"><rect x="69" y="0" width="1016" height="203"/></clipPath><clipPath class="axesclip" id="clip3dd8bbx2y"><rect x="69" y="50" width="1016" height="42.375"/></clipPath><clipPath class="axesclip" id="clip3dd8bbx2y2"><rect x="69" y="120.625" width="1016" height="42.375"/></clipPath></g><g class="gradients"/><g class="patterns"/></defs><g class="bglayer"/><g class="layer-below"><g class="imagelayer"/><g class="shapelayer"/></g><g class="cartesianlayer"><g class="subplot xy"><g class="layer-subplot"><g class="shapelayer"/><g class="imagelayer"/></g><g class="minor-gridlayer"><g class="x"/><g class="y"/></g><g class="gridlayer"><g class="x"><path class="xgrid crisp" transform="translate(274.49,0)" d="M0,50v42.375" style="stroke: rgb(0, 0, 0); stroke-opacity: 0.1; stroke-width: 1px;"/><path class="xgrid crisp" transform="translate(474.95,0)" d="M0,50v42.375" style="stroke: rgb(0, 0, 0); stroke-opacity: 0.1; stroke-width: 1px;"/><path class="xgrid crisp" transform="translate(675.41,0)" d="M0,50v42.375" style="stroke: rgb(0, 0, 0); stroke-opacity: 0.1; stroke-width: 1px;"/><path class="xgrid crisp" transform="translate(875.88,0)" d="M0,50v42.375" style="stroke: rgb(0, 0, 0); stroke-opacity: 0.1; stroke-width: 1px;"/><path class="xgrid crisp" transform="translate(1076.3400000000001,0)" d="M0,50v42.375" style="stroke: rgb(0, 0, 0); stroke-opacity: 0.1; stroke-width: 1px;"/></g><g class="y"><path class="ygrid crisp" transform="translate(0,71.19)" d="M69,0h1016" style="stroke: rgb(0, 0, 0); stroke-opacity: 0.1; stroke-width: 1px;"/></g></g><g class="zerolinelayer"><path class="xzl zl crisp" transform="translate(74.03,0)" d="M0,50v42.375" style="stroke: rgb(0, 0, 0); stroke-opacity: 0.1; stroke-width: 2px;"/></g><g class="layer-between"><g class="shapelayer"/><g class="imagelayer"/></g><path class="xlines-below"/><path class="ylines-below"/><g class="overlines-below"/><g class="xaxislayer-below"/><g class="yaxislayer-below"/><g class="overaxes-below"/><g class="overplot"><g class="xy" transform="translate(69,50)" clip-path="url(#clip3dd8bbxyplot)"><g class="violinlayer mlayer"><g class="trace violins" style="opacity: 0.5;"><path class="violin" d="M-593.33,19.18Q-529.48,18.21 -497.56,17.56C-465.64,16.91 -433.71,16.13 -401.79,15.29C-369.87,14.45 -337.94,13.46 -306.02,12.53C-274.09,11.6 -242.17,10.56 -210.24,9.71C-178.32,8.87 -146.4,8.02 -114.47,7.46C-82.55,6.9 -50.62,6.48 -18.7,6.36C13.22,6.24 45.15,6.37 77.07,6.71C108.99,7.05 140.92,7.69 172.84,8.38C204.76,9.07 236.69,10.02 268.61,10.87C300.53,11.72 332.46,12.69 364.38,13.48C396.3,14.27 428.23,15.03 460.15,15.6C492.07,16.17 524,16.61 555.92,16.9C587.84,17.19 619.77,17.3 651.69,17.34C683.61,17.38 715.54,17.25 747.46,17.14C779.39,17.03 811.31,16.81 843.24,16.66C875.16,16.51 907.09,16.33 939.01,16.26C970.93,16.19 1002.86,16.15 1034.78,16.21C1066.7,16.27 1098.63,16.41 1130.55,16.6C1162.47,16.79 1194.4,17.08 1226.32,17.36C1258.24,17.64 1290.17,17.99 1322.09,18.3C1354.01,18.61 1385.94,18.94 1417.86,19.22C1449.78,19.5 1481.71,19.76 1513.63,19.98Q1545.55,20.2 1609.4,20.52L1609.4,21.86Q1545.55,22.19 1513.63,22.4C1481.71,22.62 1449.78,22.87 1417.86,23.15C1385.94,23.43 1354.01,23.76 1322.09,24.07C1290.17,24.38 1258.24,24.74 1226.32,25.02C1194.4,25.3 1162.47,25.58 1130.55,25.77C1098.63,25.96 1066.7,26.11 1034.78,26.17C1002.86,26.23 970.93,26.19 939.01,26.12C907.09,26.05 875.16,25.87 843.24,25.72C811.31,25.57 779.39,25.35 747.46,25.24C715.54,25.13 683.61,25 651.69,25.04C619.77,25.08 587.84,25.19 555.92,25.48C524,25.77 492.07,26.21 460.15,26.78C428.23,27.35 396.3,28.11 364.38,28.9C332.46,29.69 300.53,30.65 268.61,31.5C236.69,32.35 204.76,33.29 172.84,33.99C140.92,34.68 108.99,35.33 77.07,35.67C45.15,36.01 13.22,36.15 -18.7,36.02C-50.62,35.89 -82.55,35.47 -114.47,34.91C-146.39,34.35 -178.32,33.5 -210.24,32.66C-242.17,31.81 -274.09,30.77 -306.02,29.84C-337.94,28.91 -369.87,27.92 -401.79,27.08C-433.71,26.24 -465.64,25.46 -497.56,24.81Q-529.48,24.16 -593.33,23.2Z" style="vector-effect: none; stroke-width: 2px; stroke: rgb(181, 181, 181); stroke-opacity: 1; fill: rgb(181, 181, 181); fill-opacity: 1;"/><path class="box" d="M6.13,24.9V17.48M5.13,24.9V17.48H508.09V24.9ZM5.13,21.19H5.13M508.09,21.19H1010.95" style="vector-effect: non-scaling-stroke; stroke-width: 2px; stroke: rgb(181, 181, 181); stroke-opacity: 1; fill: rgb(181, 181, 181); fill-opacity: 1;"/><path class="mean" d="M256.61,24.9V17.48" style="fill: none; vector-effect: non-scaling-stroke; stroke-width: 2px; stroke-dasharray: 4px, 2px; stroke: rgb(181, 181, 181); stroke-opacity: 1;"/></g></g><g class="scatterlayer mlayer"><g class="trace scatter traceb23934" style="stroke-miterlimit: 2; opacity: 1;"><g class="fills"/><g class="errorbars"/><g class="lines"/><g class="points"><path class="point" transform="translate(1010.95,21.19)" d="M2,0A2,2 0 1,1 0,-2A2,2 0 0,1 2,0Z" style="opacity: 1; stroke-width: 0px; fill: rgb(11, 121, 230); fill-opacity: 1;"/></g><g class="text"/></g><g class="trace scatter tracef76ae4" style="stroke-miterlimit: 2; opacity: 1;"><g class="fills"/><g class="errorbars"/><g class="lines"/><g class="points"><path class="point" transform="translate(5.23,21.19)" d="M2,0A2,2 0 1,1 0,-2A2,2 0 0,1 2,0Z" style="opacity: 1; stroke-width: 0px; fill: rgb(11, 121, 230); fill-opacity: 1;"/></g><g class="text"/></g><g class="trace scatter traceb8feb6" style="stroke-miterlimit: 2; opacity: 1;"><g class="fills"/><g class="errorbars"/><g class="lines"/><g class="points"><path class="point" transform="translate(5.13,21.19)" d="M2,0A2,2 0 1,1 0,-2A2,2 0 0,1 2,0Z" style="opacity: 1; stroke-width: 0px; fill: rgb(11, 121, 230); fill-opacity: 1;"/></g><g class="text"/></g><g class="trace scatter trace266335" style="stroke-miterlimit: 2; opacity: 1;"><g class="fills"/><g class="errorbars"/><g class="lines"/><g class="points"><path class="point" transform="translate(5.13,21.19)" d="M2,0A2,2 0 1,1 0,-2A2,2 0 0,1 2,0Z" style="opacity: 1; stroke-width: 0px; fill: rgb(11, 121, 230); fill-opacity: 1;"/></g><g class="text"/></g></g></g></g><path class="xlines-above crisp" d="M0,0" style="fill: none;"/><path class="ylines-above crisp" d="M0,0" style="fill: none;"/><g class="overlines-above"/><g class="xaxislayer-above"><g class="xtick"><text text-anchor="middle" x="0" y="102.375" transform="translate(74.03,0)" style="font-family: 'Lucida Grande', 'Open Sans', verdana, arial, sans-serif; font-size: 9px; fill: rgb(0, 0, 0); fill-opacity: 0.5; white-space: pre; opacity: 1;">0</text></g><g class="xtick"><text text-anchor="middle" x="0" y="102.375" style="font-family: 'Lucida Grande', 'Open Sans', verdana, arial, sans-serif; font-size: 9px; fill: rgb(0, 0, 0); fill-opacity: 0.5; white-space: pre; opacity: 1;" transform="translate(274.49,0)">2k</text></g><g class="xtick"><text text-anchor="middle" x="0" y="102.375" style="font-family: 'Lucida Grande', 'Open Sans', verdana, arial, sans-serif; font-size: 9px; fill: rgb(0, 0, 0); fill-opacity: 0.5; white-space: pre; opacity: 1;" transform="translate(474.95,0)">4k</text></g><g class="xtick"><text text-anchor="middle" x="0" y="102.375" style="font-family: 'Lucida Grande', 'Open Sans', verdana, arial, sans-serif; font-size: 9px; fill: rgb(0, 0, 0); fill-opacity: 0.5; white-space: pre; opacity: 1;" transform="translate(675.41,0)">6k</text></g><g class="xtick"><text text-anchor="middle" x="0" y="102.375" style="font-family: 'Lucida Grande', 'Open Sans', verdana, arial, sans-serif; font-size: 9px; fill: rgb(0, 0, 0); fill-opacity: 0.5; white-space: pre; opacity: 1;" transform="translate(875.88,0)">8k</text></g><g class="xtick"><text text-anchor="middle" x="0" y="102.375" style="font-family: 'Lucida Grande', 'Open Sans', verdana, arial, sans-serif; font-size: 9px; fill: rgb(0, 0, 0); fill-opacity: 0.5; white-space: pre; opacity: 1;" transform="translate(1076.3400000000001,0)">10k</text></g></g><g class="yaxislayer-above"><g class="ytick"><text text-anchor="end" x="68" y="3.15" transform="translate(0,71.19)" style="font-family: 'Lucida Grande', 'Open Sans', verdana, arial, sans-serif; font-size: 9px; fill: rgb(0, 0, 0); fill-opacity: 0.5; white-space: pre; opacity: 1;">reads  </text></g></g><g class="overaxes-above"/></g><g class="subplot x2y2"><g class="layer-subplot"><g class="shapelayer"/><g class="imagelayer"/></g><g class="minor-gridlayer"><g class="x2"/><g class="y2"/></g><g class="gridlayer"><g class="x2"><path class="x2grid crisp" transform="translate(275.28999999999996,0)" d="M0,120.625v42.375" style="stroke: rgb(0, 0, 0); stroke-opacity: 0.1; stroke-width: 1px;"/><path class="x2grid crisp" transform="translate(476.56,0)" d="M0,120.625v42.375" style="stroke: rgb(0, 0, 0); stroke-opacity: 0.1; stroke-width: 1px;"/><path class="x2grid crisp" transform="translate(677.82,0)" d="M0,120.625v42.375" style="stroke: rgb(0, 0, 0); stroke-opacity: 0.1; stroke-width: 1px;"/><path class="x2grid crisp" transform="translate(879.08,0)" d="M0,120.625v42.375" style="stroke: rgb(0, 0, 0); stroke-opacity: 0.1; stroke-width: 1px;"/><path class="x2grid crisp" transform="translate(1080.35,0)" d="M0,120.625v42.375" style="stroke: rgb(0, 0, 0); stroke-opacity: 0.1; stroke-width: 1px;"/></g><g class="y2"><path class="y2grid crisp" transform="translate(0,141.815)" d="M69,0h1016" style="stroke: rgb(0, 0, 0); stroke-opacity: 0.1; stroke-width: 1px;"/></g></g><g class="zerolinelayer"><path class="x2zl zl crisp" transform="translate(74.03,0)" d="M0,120.625v42.375" style="stroke: rgb(0, 0, 0); stroke-opacity: 0.1; stroke-width: 2px;"/></g><g class="layer-between"><g class="shapelayer"/><g class="imagelayer"/></g><path class="xlines-below"/><path class="ylines-below"/><g class="overlines-below"/><g class="xaxislayer-below"/><g class="yaxislayer-below"/><g class="overaxes-below"/><g class="overplot"><g class="x2y2" transform="translate(69,120.625)" clip-path="url(#clip3dd8bbx2y2plot)"><g class="violinlayer mlayer"><g class="trace violins" style="opacity: 0.5;"><path class="violin" d="M-593.33,19.18Q-529.48,18.21 -497.56,17.56C-465.64,16.91 -433.71,16.13 -401.79,15.29C-369.87,14.45 -337.94,13.46 -306.02,12.53C-274.09,11.6 -242.17,10.56 -210.24,9.71C-178.32,8.87 -146.4,8.02 -114.47,7.46C-82.55,6.9 -50.62,6.48 -18.7,6.36C13.22,6.24 45.15,6.37 77.07,6.71C108.99,7.05 140.92,7.69 172.84,8.38C204.76,9.07 236.69,10.02 268.61,10.87C300.53,11.72 332.46,12.69 364.38,13.48C396.3,14.27 428.23,15.03 460.15,15.6C492.07,16.17 524,16.61 555.92,16.9C587.84,17.19 619.77,17.3 651.69,17.34C683.61,17.38 715.54,17.25 747.46,17.14C779.39,17.03 811.31,16.81 843.24,16.66C875.16,16.51 907.09,16.33 939.01,16.26C970.93,16.19 1002.86,16.15 1034.78,16.21C1066.7,16.27 1098.63,16.41 1130.55,16.6C1162.47,16.79 1194.4,17.08 1226.32,17.36C1258.24,17.64 1290.17,17.99 1322.09,18.3C1354.01,18.61 1385.94,18.94 1417.86,19.22C1449.78,19.5 1481.71,19.76 1513.63,19.98Q1545.55,20.2 1609.4,20.52L1609.4,21.86Q1545.55,22.19 1513.63,22.4C1481.71,22.62 1449.78,22.87 1417.86,23.15C1385.94,23.43 1354.01,23.76 1322.09,24.07C1290.17,24.38 1258.24,24.74 1226.32,25.02C1194.4,25.3 1162.47,25.58 1130.55,25.77C1098.63,25.96 1066.7,26.11 1034.78,26.17C1002.86,26.23 970.93,26.19 939.01,26.12C907.09,26.05 875.16,25.87 843.24,25.72C811.31,25.57 779.39,25.35 747.46,25.24C715.54,25.13 683.61,25 651.69,25.04C619.77,25.08 587.84,25.19 555.92,25.48C524,25.77 492.07,26.21 460.15,26.78C428.23,27.35 396.3,28.11 364.38,28.9C332.46,29.69 300.53,30.65 268.61,31.5C236.69,32.35 204.76,33.29 172.84,33.99C140.92,34.68 108.99,35.33 77.07,35.67C45.15,36.01 13.22,36.15 -18.7,36.02C-50.62,35.89 -82.55,35.47 -114.47,34.91C-146.39,34.35 -178.32,33.5 -210.24,32.66C-242.17,31.81 -274.09,30.77 -306.02,29.84C-337.94,28.91 -369.87,27.92 -401.79,27.08C-433.71,26.24 -465.64,25.46 -497.56,24.81Q-529.48,24.16 -593.33,23.2Z" style="vector-effect: none; stroke-width: 2px; stroke: rgb(181, 181, 181); stroke-opacity: 1; fill: rgb(181, 181, 181); fill-opacity: 1;"/><path class="box" d="M6.13,24.9V17.48M5.13,24.9V17.48H508.09V24.9ZM5.13,21.19H5.13M508.09,21.19H1010.95" style="vector-effect: non-scaling-stroke; stroke-width: 2px; stroke: rgb(181, 181, 181); stroke-opacity: 1; fill: rgb(181, 181, 181); fill-opacity: 1;"/><path class="mean" d="M256.61,24.9V17.48" style="fill: none; vector-effect: non-scaling-stroke; stroke-width: 2px; stroke-dasharray: 4px, 2px; stroke: rgb(181, 181, 181); stroke-opacity: 1;"/></g></g><g class="scatterlayer mlayer"><g class="trace scatter trace7b6729" style="stroke-miterlimit: 2; opacity: 1;"><g class="fills"/><g class="errorbars"/><g class="lines"/><g class="points"><path class="point" transform="translate(1010.95,21.19)" d="M2,0A2,2 0 1,1 0,-2A2,2 0 0,1 2,0Z" style="opacity: 1; stroke-width: 0px; fill: rgb(11, 121, 230); fill-opacity: 1;"/></g><g class="text"/></g><g class="trace scatter tracece7997" style="stroke-miterlimit: 2; opacity: 1;"><g class="fills"/><g class="errorbars"/><g class="lines"/><g class="points"><path class="point" transform="translate(5.23,21.19)" d="M2,0A2,2 0 1,1 0,-2A2,2 0 0,1 2,0Z" style="opacity: 1; stroke-width: 0px; fill: rgb(11, 121, 230); fill-opacity: 1;"/></g><g class="text"/></g><g class="trace scatter trace446010" style="stroke-miterlimit: 2; opacity: 1;"><g class="fills"/><g class="errorbars"/><g class="lines"/><g class="points"><path class="point" transform="translate(5.13,21.19)" d="M2,0A2,2 0 1,1 0,-2A2,2 0 0,1 2,0Z" style="opacity: 1; stroke-width: 0px; fill: rgb(11, 121, 230); fill-opacity: 1;"/></g><g class="text"/></g><g class="trace scatter trace2b66ed" style="stroke-miterlimit: 2; opacity: 1;"><g class="fills"/><g class="errorbars"/><g class="lines"/><g class="points"><path class="point" transform="translate(5.13,21.19)" d="M2,0A2,2 0 1,1 0,-2A2,2 0 0,1 2,0Z" style="opacity: 1; stroke-width: 0px; fill: rgb(11, 121, 230); fill-opacity: 1;"/></g><g class="text"/></g></g></g></g><path class="xlines-above crisp" d="M0,0" style="fill: none;"/><path class="ylines-above crisp" d="M0,0" style="fill: none;"/><g class="overlines-above"/><g class="xaxislayer-above"><g class="x2tick"><text text-anchor="middle" x="0" y="173" transform="translate(74.03,0)" style="font-family: 'Lucida Grande', 'Open Sans', verdana, arial, sans-serif; font-size: 9px; fill: rgb(0, 0, 0); fill-opacity: 0.5; white-space: pre; opacity: 1;">0</text></g><g class="x2tick"><text text-anchor="middle" x="0" y="173" style="font-family: 'Lucida Grande', 'Open Sans', verdana, arial, sans-serif; font-size: 9px; fill: rgb(0, 0, 0); fill-opacity: 0.5; white-space: pre; opacity: 1;" transform="translate(275.28999999999996,0)">0.2</text></g><g class="x2tick"><text text-anchor="middle" x="0" y="173" style="font-family: 'Lucida Grande', 'Open Sans', verdana, arial, sans-serif; font-size: 9px; fill: rgb(0, 0, 0); fill-opacity: 0.5; white-space: pre; opacity: 1;" transform="translate(476.56,0)">0.4</text></g><g class="x2tick"><text text-anchor="middle" x="0" y="173" style="font-family: 'Lucida Grande', 'Open Sans', verdana, arial, sans-serif; font-size: 9px; fill: rgb(0, 0, 0); fill-opacity: 0.5; white-space: pre; opacity: 1;" transform="translate(677.82,0)">0.6</text></g><g class="x2tick"><text text-anchor="middle" x="0" y="173" style="font-family: 'Lucida Grande', 'Open Sans', verdana, arial, sans-serif; font-size: 9px; fill: rgb(0, 0, 0); fill-opacity: 0.5; white-space: pre; opacity: 1;" transform="translate(879.08,0)">0.8</text></g><g class="x2tick"><text text-anchor="middle" x="0" y="173" style="font-family: 'Lucida Grande', 'Open Sans', verdana, arial, sans-serif; font-size: 9px; fill: rgb(0, 0, 0); fill-opacity: 0.5; white-space: pre; opacity: 1;" transform="translate(1080.35,0)">1</text></g></g><g class="yaxislayer-above"><g class="y2tick"><text text-anchor="end" x="68" y="3.15" transform="translate(0,141.815)" style="font-family: 'Lucida Grande', 'Open Sans', verdana, arial, sans-serif; font-size: 9px; fill: rgb(0, 0, 0); fill-opacity: 0.5; white-space: pre; opacity: 1;">Percentage  </text></g></g><g class="overaxes-above"/></g></g><g class="polarlayer"/><g class="smithlayer"/><g class="ternarylayer"/><g class="geolayer"/><g class="funnelarealayer"/><g class="pielayer"/><g class="iciclelayer"/><g class="treemaplayer"/><g class="sunburstlayer"/><g class="glimages"/><defs id="topdefs-3dd8bb"><g class="clips"/></defs><g class="layer-above"><g class="imagelayer"/><g class="shapelayer"/></g><g class="infolayer"><g class="g-gtitle"><text class="gtitle" x="550" y="25" text-anchor="middle" dy="0em" style="opacity: 1; font-family: 'Lucida Grande', 'Open Sans', verdana, arial, sans-serif; font-size: 20px; fill: rgb(42, 63, 95); fill-opacity: 1; white-space: pre;"><tspan class="line" dy="0em" x="550" y="25">BLAST Sequence Frequency</tspan><tspan class="line" dy="1.3em" x="550" y="25">​<tspan style="font-size:70%" dy="-0.6em">4 samples</tspan><tspan dy="0.42em">​</tspan></tspan></text></g><g class="g-xtitle"/><g class="g-x2title"/><g class="g-ytitle"/><g class="g-y2title"/></g></svg>