<svg class="main-svg" xmlns="http://www.w3.org/2000/svg" xmlns:xlink="http://www.w3.org/1999/xlink" width="2200" height="406" style="" viewBox="0 0 1100 203"><rect x="0" y="0" width="1100" height="203" style="fill: rgb(255, 255, 255); fill-opacity: 1;"/><defs id="defs-6e6938"><g class="clips"><clipPath id="clip6e6938xyplot" class="plotclip"><rect width="1025" height="42.375"/></clipPath><clipPath id="clip6e6938x2y2plot" class="plotclip"><rect width="1025" height="42.375"/></clipPath><clipPath class="axesclip" id="clip6e6938x"><rect x="60" y="0" width="1025" height="203"/></clipPath><clipPath class="axesclip" id="clip6e6938y"><rect x="0" y="50" width="1100" height="42.375"/></clipPath><clipPath class="axesclip" id="clip6e6938xy"><rect x="60" y="50" width="1025" height="42.375"/></clipPath><clipPath class="axesclip" id="clip6e6938y2"><rect x="0" y="120.625" width="1100" height="42.375"/></clipPath><clipPath class="axesclip" id="clip6e6938xy2"><rect x="60" y="120.625" width="1025" height="42.375"/></clipPath><clipPath class="axesclip" id="clip6e6938x2"><rect x="60" y="0" width="1025" height="203"/></clipPath><clipPath class="axesclip" id="clip6e6938x2y"><rect x="60" y="50" width="1025" height="42.375"/></clipPath><clipPath class="axesclip" id="clip6e6938x2y2"><rect x="60" y="120.625" width="1025" height="42.375"/></clipPath></g><g class="gradients"/><g class="patterns"/></defs><g class="bglayer"/><g class="layer-below"><g class="imagelayer"/><g class="shapelayer"/></g><g class="cartesianlayer"><g class="subplot xy"><g class="layer-subplot"><g class="shapelayer"/><g class="imagelayer"/></g><g class="minor-gridlayer"><g class="x"/><g class="y"/></g><g class="gridlayer"><g class="x"><path class="xgrid crisp" transform="translate(218.84,0)" d="M0,50v42.375" style="stroke: rgb(0, 0, 0); stroke-opacity: 0.1; stroke-width: 1px;"/><path class="xgrid crisp" transform="translate(372.6,0)" d="M0,50v42.375" style="stroke: rgb(0, 0, 0); stroke-opacity: 0.1; stroke-width: 1px;"/><path class="xgrid crisp" transform="translate(526.36,0)" d="M0,50v42.375" style="stroke: rgb(0, 0, 0); stroke-opacity: 0.1; stroke-width: 1px;"/><path class="xgrid crisp" transform="translate(680.12,0)" d="M0,50v42.375" style="stroke: rgb(0, 0, 0); stroke-opacity: 0.1; stroke-width: 1px;"/><path class="xgrid crisp" transform="translate(833.88,0)" d="M0,50v42.375" style="stroke: rgb(0, 0, 0); stroke-opacity: 0.1; stroke-width: 1px;"/><path class="xgrid crisp" transform="translate(987.64,0)" d="M0,50v42.375" style="stroke: rgb(0, 0, 0); stroke-opacity: 0.1; stroke-width: 1px;"/></g><g class="y"><path class="ygrid crisp" transform="translate(0,71.19)" d="M60,0h1025" style="stroke: rgb(0, 0, 0); stroke-opacity: 0.1; stroke-width: 1px;"/></g></g><g class="zerolinelayer"><path class="xzl zl crisp" transform="translate(65.07,0)" d="M0,50v42.375" style="stroke: rgb(0, 0, 0); stroke-opacity: 0.1; stroke-width: 2px;"/></g><g class="layer-between"><g class="shapelayer"/><g class="imagelayer"/></g><path class="xlines-below"/><path class="ylines-below"/><g class="overlines-below"/><g class="xaxislayer-below"/><g class="yaxislayer-below"/><g class="overaxes-below"/><g class="overplot"><g class="xy" transform="translate(60,50)" clip-path="url(#clip6e6938xyplot)"><g class="violinlayer mlayer"><g class="trace violins" style="opacity: 0.5;"><path class="violin" d="M878.21,19.81Q886.91,19.14 891.26,18.67C895.61,18.2 899.97,17.63 904.31,17C908.67,16.37 913.01,15.63 917.36,14.88C921.71,14.13 926.06,13.29 930.41,12.51C934.76,11.74 939.11,10.93 943.47,10.23C947.82,9.53 952.16,8.86 956.52,8.32C960.86,7.78 965.22,7.34 969.57,7.01C973.92,6.68 978.27,6.47 982.62,6.36C986.97,6.25 991.32,6.25 995.67,6.36C1000.02,6.47 1004.38,6.68 1008.73,7.01C1013.08,7.34 1017.44,7.78 1021.78,8.32C1026.14,8.86 1030.48,9.53 1034.83,10.23C1039.18,10.93 1043.53,11.74 1047.88,12.51C1052.23,13.29 1056.58,14.13 1060.93,14.88C1065.28,15.63 1069.63,16.37 1073.99,17C1078.34,17.63 1082.69,18.2 1087.04,18.67Q1091.39,19.14 1100.09,19.81L1100.09,22.56Q1091.39,23.24 1087.04,23.71C1082.69,24.18 1078.34,24.74 1073.99,25.37C1069.63,26 1065.28,26.74 1060.93,27.49C1056.58,28.24 1052.23,29.08 1047.88,29.86C1043.53,30.64 1039.19,31.45 1034.83,32.15C1030.49,32.85 1026.14,33.51 1021.78,34.05C1017.44,34.58 1013.08,35.03 1008.73,35.36C1004.38,35.69 1000.02,35.91 995.67,36.02C991.32,36.13 986.97,36.13 982.62,36.02C978.27,35.91 973.92,35.69 969.57,35.36C965.22,35.03 960.86,34.58 956.52,34.05C952.16,33.51 947.82,32.85 943.47,32.15C939.11,31.45 934.76,30.64 930.41,29.86C926.06,29.08 921.71,28.24 917.36,27.49C913.01,26.74 908.67,26 904.31,25.37C899.97,24.74 895.61,24.18 891.26,23.71Q886.91,23.24 878.21,22.56Z" style="vector-effect: none; stroke-width: 2px; stroke: rgb(181, 181, 181); stroke-opacity: 1; fill: rgb(181, 181, 181); fill-opacity: 1;"/><path class="box" d="M989.15,24.9V17.48M958.4,24.9V17.48H1019.9V24.9ZM958.4,21.19H958.4M1019.9,21.19H1019.9" style="vector-effect: non-scaling-stroke; stroke-width: 2px; stroke: rgb(181, 181, 181); stroke-opacity: 1; fill: rgb(181, 181, 181); fill-opacity: 1;"/><path class="mean" d="M989.15,24.9V17.48" style="fill: none; vector-effect: non-scaling-stroke; stroke-width: 2px; stroke-dasharray: 4px, 2px; stroke: rgb(181, 181, 181); stroke-opacity: 1;"/></g></g><g class="scatterlayer mlayer"><g class="trace scatter traceddafaf" style="stroke-miterlimit: 2; opacity: 1;"><g class="fills"/><g class="errorbars"/><g class="lines"/><g class="points"><path class="point" transform="translate(1019.9,21.19)" d="M2,0A2,2 0 1,1 0,-2A2,2 0 0,1 2,0Z" style="opacity: 1; stroke-width: 0px; fill: rgb(11, 121, 230); fill-opacity: 1;"/></g><g class="text"/></g><g class="trace scatter trace0e16fc" style="stroke-miterlimit: 2; opacity: 1;"><g class="fills"/><g class="errorbars"/><g class="lines"/><g class="points"><path class="point" transform="translate(958.4,21.19)" d="M2,0A2,2 0 1,1 0,-2A2,2 0 0,1 2,0Z" style="opacity: 1; stroke-width: 0px; fill: rgb(11, 121, 230); fill-opacity: 1;"/></g><g class="text"/></g></g></g></g><path class="xlines-above crisp" d="M0,0" style="fill: none;"/><path class="ylines-above crisp" d="M0,0" style="fill: none;"/><g class="overlines-above"/><g class="xaxislayer-above"><g class="xtick"><text text-anchor="middle" x="0" y="102.375" transform="translate(65.07,0)" style="font-family: 'Lucida Grande', 'Open Sans', verdana, arial, sans-serif; font-size: 9px; fill: rgb(0, 0, 0); fill-opacity: 0.5; white-space: pre; opacity: 1;">0</text></g><g class="xtick"><text text-anchor="middle" x="0" y="102.375" style="font-family: 'Lucida Grande', 'Open Sans', verdana, arial, sans-serif; font-size: 9px; fill: rgb(0, 0, 0); fill-opacity: 0.5; white-space: pre; opacity: 1;" transform="translate(218.84,0)">5</text></g><g class="xtick"><text text-anchor="middle" x="0" y="102.375" style="font-family: 'Lucida Grande', 'Open Sans', verdana, arial, sans-serif; font-size: 9px; fill: rgb(0, 0, 0); fill-opacity: 0.5; white-space: pre; opacity: 1;" transform="translate(372.6,0)">10</text></g><g class="xtick"><text text-anchor="middle" x="0" y="102.375" style="font-family: 'Lucida Grande', 'Open Sans', verdana, arial, sans-serif; font-size: 9px; fill: rgb(0, 0, 0); fill-opacity: 0.5; white-space: pre; opacity: 1;" transform="translate(526.36,0)">15</text></g><g class="xtick"><text text-anchor="middle" x="0" y="102.375" style="font-family: 'Lucida Grande', 'Open Sans', verdana, arial, sans-serif; font-size: 9px; fill: rgb(0, 0, 0); fill-opacity: 0.5; white-space: pre; opacity: 1;" transform="translate(680.12,0)">20</text></g><g class="xtick"><text text-anchor="middle" x="0" y="102.375" style="font-family: 'Lucida Grande', 'Open Sans', verdana, arial, sans-serif; font-size: 9px; fill: rgb(0, 0, 0); fill-opacity: 0.5; white-space: pre; opacity: 1;" transform="translate(833.88,0)">25</text></g><g class="xtick"><text text-anchor="middle" x="0" y="102.375" style="font-family: 'Lucida Grande', 'Open Sans', verdana, arial, sans-serif; font-size: 9px; fill: rgb(0, 0, 0); fill-opacity: 0.5; white-space: pre; opacity: 1;" transform="translate(987.64,0)">30</text></g></g><g class="yaxislayer-above"><g class="ytick"><text text-anchor="end" x="59" y="3.15" transform="translate(0,71.19)" style="font-family: 'Lucida Grande', 'Open Sans', verdana, arial, sans-serif; font-size: 9px; fill: rgb(0, 0, 0); fill-opacity: 0.5; white-space: pre; opacity: 1;">Count  </text></g></g><g class="overaxes-above"/></g><g class="subplot x2y2"><g class="layer-subplot"><g class="shapelayer"/><g class="imagelayer"/></g><g class="minor-gridlayer"><g class="x2"/><g class="y2"/></g><g class="gridlayer"><g class="x2"><path class="x2grid crisp" transform="translate(444.64,0)" d="M0,120.625v42.375" style="stroke: rgb(0, 0, 0); stroke-opacity: 0.1; stroke-width: 1px;"/><path class="x2grid crisp" transform="translate(700.36,0)" d="M0,120.625v42.375" style="stroke: rgb(0, 0, 0); stroke-opacity: 0.1; stroke-width: 1px;"/></g><g class="y2"><path class="y2grid crisp" transform="translate(0,141.815)" d="M60,0h1025" style="stroke: rgb(0, 0, 0); stroke-opacity: 0.1; stroke-width: 1px;"/></g></g><g class="zerolinelayer"/><g class="layer-between"><g class="shapelayer"/><g class="imagelayer"/></g><path class="xlines-below"/><path class="ylines-below"/><g class="overlines-below"/><g class="xaxislayer-below"/><g class="yaxislayer-below"/><g class="overaxes-below"/><g class="overplot"><g class="x2y2" transform="translate(60,120.625)" clip-path="url(#clip6e6938x2y2plot)"><g class="violinlayer mlayer"><g class="trace violins" style="opacity: 0.5;"><path class="violin" d="M51.25,19.81Q87.42,19.14 105.51,18.67C123.6,18.2 141.69,17.63 159.78,17C177.87,16.37 195.95,15.63 214.04,14.88C232.13,14.13 250.22,13.29 268.31,12.51C286.4,11.74 304.48,10.93 322.57,10.23C340.66,9.53 358.75,8.86 376.84,8.32C394.93,7.78 413.01,7.34 431.1,7.01C449.19,6.68 467.28,6.47 485.37,6.36C503.46,6.25 521.54,6.25 539.63,6.36C557.72,6.47 575.81,6.68 593.9,7.01C611.99,7.34 630.07,7.78 648.16,8.32C666.25,8.86 684.34,9.53 702.43,10.23C720.52,10.93 738.6,11.74 756.69,12.51C774.78,13.29 792.87,14.13 810.96,14.88C829.05,15.63 847.13,16.37 865.22,17C883.31,17.63 901.4,18.2 919.49,18.67Q937.58,19.14 973.75,19.81L973.75,22.56Q937.58,23.24 919.49,23.71C901.4,24.18 883.31,24.74 865.22,25.37C847.13,26 829.05,26.74 810.96,27.49C792.87,28.24 774.78,29.08 756.69,29.86C738.6,30.64 720.52,31.45 702.43,32.15C684.34,32.85 666.25,33.51 648.16,34.05C630.07,34.58 611.99,35.03 593.9,35.36C575.81,35.69 557.72,35.91 539.63,36.02C521.54,36.13 503.46,36.13 485.37,36.02C467.28,35.91 449.19,35.69 431.1,35.36C413.01,35.03 394.93,34.58 376.84,34.05C358.75,33.51 340.66,32.85 322.57,32.15C304.48,31.45 286.4,30.64 268.31,29.86C250.22,29.08 232.13,28.24 214.04,27.49C195.95,26.74 177.87,26 159.78,25.37C141.69,24.74 123.6,24.18 105.51,23.71Q87.42,23.24 51.25,22.56Z" style="vector-effect: none; stroke-width: 2px; stroke: rgb(181, 181, 181); stroke-opacity: 1; fill: rgb(181, 181, 181); fill-opacity: 1;"/><path class="box" d="M512.5,24.9V17.48M384.64,24.9V17.48H640.36V24.9ZM384.64,21.19H384.64M640.36,21.19H640.36" style="vector-effect: non-scaling-stroke; stroke-width: 2px; stroke: rgb(181, 181, 181); stroke-opacity: 1; fill: rgb(181, 181, 181); fill-opacity: 1;"/><path class="mean" d="M512.5,24.9V17.48" style="fill: none; vector-effect: non-scaling-stroke; stroke-width: 2px; stroke-dasharray: 4px, 2px; stroke: rgb(181, 181, 181); stroke-opacity: 1;"/></g></g><g class="scatterlayer mlayer"><g class="trace scatter trace4fb19e" style="stroke-miterlimit: 2; opacity: 1;"><g class="fills"/><g class="errorbars"/><g class="lines"/><g class="points"><path class="point" transform="translate(384.64,21.19)" d="M2,0A2,2 0 1,1 0,-2A2,2 0 0,1 2,0Z" style="opacity: 1; stroke-width: 0px; fill: rgb(11, 121, 230); fill-opacity: 1;"/></g><g class="text"/></g><g class="trace scatter traceda3c79" style="stroke-miterlimit: 2; opacity: 1;"><g class="fills"/><g class="errorbars"/><g class="lines"/><g class="points"><path class="point" transform="translate(640.36,21.19)" d="M2,0A2,2 0 1,1 0,-2A2,2 0 0,1 2,0Z" style="opacity: 1; stroke-width: 0px; fill: rgb(11, 121, 230); fill-opacity: 1;"/></g><g class="text"/></g></g></g></g><path class="xlines-above crisp" d="M0,0" style="fill: none;"/><path class="ylines-above crisp" d="M0,0" style="fill: none;"/><g class="overlines-above"/><g class="xaxislayer-above"><g class="x2tick"><text text-anchor="middle" x="0" y="173" transform="translate(444.64,0)" style="font-family: 'Lucida Grande', 'Open Sans', verdana, arial, sans-serif; font-size: 9px; fill: rgb(0, 0, 0); fill-opacity: 0.5; white-space: pre; opacity: 1;">51.6%</text></g><g class="x2tick"><text text-anchor="middle" x="0" y="173" transform="translate(700.36,0)" style="font-family: 'Lucida Grande', 'Open Sans', verdana, arial, sans-serif; font-size: 9px; fill: rgb(0, 0, 0); fill-opacity: 0.5; white-space: pre; opacity: 1;">48.4%</text></g></g><g class="yaxislayer-above"><g class="y2tick"><text text-anchor="end" x="59" y="3.15" transform="translate(0,141.815)" style="font-family: 'Lucida Grande', 'Open Sans', verdana, arial, sans-serif; font-size: 9px; fill: rgb(0, 0, 0); fill-opacity: 0.5; white-space: pre; opacity: 1;">Percent  </text></g></g><g class="overaxes-above"/></g></g><g class="polarlayer"/><g class="smithlayer"/><g class="ternarylayer"/><g class="geolayer"/><g class="funnelarealayer"/><g class="pielayer"/><g class="iciclelayer"/><g class="treemaplayer"/><g class="sunburstlayer"/><g class="glimages"/><defs id="topdefs-6e6938"><g class="clips"/></defs><g class="layer-above"><g class="imagelayer"/><g class="shapelayer"/></g><g class="infolayer"><g class="g-gtitle"><text class="gtitle" x="550" y="25" text-anchor="middle" dy="0em" style="opacity: 1; font-family: 'Lucida Grande', 'Open Sans', verdana, arial, sans-serif; font-size: 20px; fill: rgb(42, 63, 95); fill-opacity: 1; white-space: pre;"><tspan class="line" dy="0em" x="550" y="25">Variant by Functional Class</tspan><tspan class="line" dy="1.3em" x="550" y="25">​<tspan style="font-size:70%" dy="-0.6em">2 samples</tspan><tspan dy="0.42em">​</tspan></tspan></text></g><g class="g-xtitle"/><g class="g-x2title"/><g class="g-ytitle"/><g class="g-y2title"/></g></svg>