<svg class="main-svg" xmlns="http://www.w3.org/2000/svg" xmlns:xlink="http://www.w3.org/1999/xlink" width="2200" height="406" style="" viewBox="0 0 1100 203"><rect x="0" y="0" width="1100" height="203" style="fill: rgb(255, 255, 255); fill-opacity: 1;"/><defs id="defs-eb58ac"><g class="clips"><clipPath id="clipeb58acxyplot" class="plotclip"><rect width="1025" height="42.375"/></clipPath><clipPath id="clipeb58acx2y2plot" class="plotclip"><rect width="1025" height="42.375"/></clipPath><clipPath class="axesclip" id="clipeb58acx"><rect x="60" y="0" width="1025" height="203"/></clipPath><clipPath class="axesclip" id="clipeb58acy"><rect x="0" y="50" width="1100" height="42.375"/></clipPath><clipPath class="axesclip" id="clipeb58acxy"><rect x="60" y="50" width="1025" height="42.375"/></clipPath><clipPath class="axesclip" id="clipeb58acy2"><rect x="0" y="120.625" width="1100" height="42.375"/></clipPath><clipPath class="axesclip" id="clipeb58acxy2"><rect x="60" y="120.625" width="1025" height="42.375"/></clipPath><clipPath class="axesclip" id="clipeb58acx2"><rect x="60" y="0" width="1025" height="203"/></clipPath><clipPath class="axesclip" id="clipeb58acx2y"><rect x="60" y="50" width="1025" height="42.375"/></clipPath><clipPath class="axesclip" id="clipeb58acx2y2"><rect x="60" y="120.625" width="1025" height="42.375"/></clipPath></g><g class="gradients"/><g class="patterns"/></defs><g class="bglayer"/><g class="layer-below"><g class="imagelayer"/><g class="shapelayer"/></g><g class="cartesianlayer"><g class="subplot xy"><g class="layer-subplot"><g class="shapelayer"/><g class="imagelayer"/></g><g class="minor-gridlayer"><g class="x"/><g class="y"/></g><g class="gridlayer"><g class="x"><path class="xgrid crisp" transform="translate(412.93,0)" d="M0,50v42.375" style="stroke: rgb(0, 0, 0); stroke-opacity: 0.1; stroke-width: 1px;"/><path class="xgrid crisp" transform="translate(732.07,0)" d="M0,50v42.375" style="stroke: rgb(0, 0, 0); stroke-opacity: 0.1; stroke-width: 1px;"/></g><g class="y"><path class="ygrid crisp" transform="translate(0,71.19)" d="M60,0h1025" style="stroke: rgb(0, 0, 0); stroke-opacity: 0.1; stroke-width: 1px;"/></g></g><g class="zerolinelayer"/><g class="layer-between"><g class="shapelayer"/><g class="imagelayer"/></g><path class="xlines-below"/><path class="ylines-below"/><g class="overlines-below"/><g class="xaxislayer-below"/><g class="yaxislayer-below"/><g class="overaxes-below"/><g class="overplot"><g class="xy" transform="translate(60,50)" clip-path="url(#clipeb58acxyplot)"><g class="violinlayer mlayer"><g class="trace violins" style="opacity: 0.5;"><path class="violin" d="M51.25,19.29Q83.62,18.37 99.8,17.75C115.99,17.13 132.18,16.38 148.36,15.58C164.55,14.77 180.73,13.82 196.91,12.92C213.09,12.02 229.27,11.01 245.46,10.17C261.64,9.33 277.82,8.49 294.01,7.88C310.19,7.28 326.38,6.79 342.57,6.54C358.75,6.29 374.94,6.26 391.12,6.36C407.3,6.46 423.49,6.8 439.67,7.15C455.85,7.5 472.04,8.02 488.22,8.46C504.41,8.91 520.59,9.4 536.78,9.82C552.96,10.24 569.15,10.61 585.33,10.96C601.51,11.31 617.7,11.59 633.88,11.91C650.06,12.23 666.25,12.54 682.43,12.9C698.62,13.26 714.8,13.65 730.99,14.08C747.17,14.51 763.36,15.01 779.54,15.49C795.72,15.97 811.91,16.5 828.09,16.98C844.27,17.46 860.46,17.95 876.64,18.36C892.83,18.77 909.01,19.15 925.2,19.46Q941.38,19.77 973.75,20.23L973.75,22.14Q941.38,22.6 925.2,22.91C909.01,23.22 892.83,23.6 876.64,24.02C860.46,24.43 844.27,24.92 828.09,25.4C811.91,25.88 795.72,26.41 779.54,26.89C763.36,27.37 747.17,27.87 730.99,28.3C714.8,28.73 698.62,29.12 682.43,29.48C666.25,29.84 650.06,30.14 633.88,30.46C617.7,30.78 601.51,31.07 585.33,31.42C569.15,31.77 552.96,32.15 536.78,32.56C520.59,32.98 504.41,33.46 488.22,33.91C472.04,34.35 455.85,34.88 439.67,35.23C423.49,35.58 407.3,35.92 391.12,36.02C374.94,36.12 358.75,36.09 342.57,35.84C326.38,35.59 310.19,35.1 294.01,34.5C277.82,33.89 261.64,33.05 245.46,32.21C229.27,31.37 213.09,30.36 196.91,29.46C180.73,28.56 164.55,27.61 148.36,26.8C132.18,26 115.99,25.25 99.8,24.63Q83.62,24.01 51.25,23.09Z" style="vector-effect: none; stroke-width: 2px; stroke: rgb(181, 181, 181); stroke-opacity: 1; fill: rgb(181, 181, 181); fill-opacity: 1;"/><path class="box" d="M353.93,24.9V17.48M352.93,24.9V17.48H592.29V24.9ZM352.93,21.19H352.93M592.29,21.19H672.07" style="vector-effect: non-scaling-stroke; stroke-width: 2px; stroke: rgb(181, 181, 181); stroke-opacity: 1; fill: rgb(181, 181, 181); fill-opacity: 1;"/><path class="mean" d="M459.31,24.9V17.48" style="fill: none; vector-effect: non-scaling-stroke; stroke-width: 2px; stroke-dasharray: 4px, 2px; stroke: rgb(181, 181, 181); stroke-opacity: 1;"/></g></g><g class="scatterlayer mlayer"><g class="trace scatter trace2135d7" style="stroke-miterlimit: 2; opacity: 1;"><g class="fills"/><g class="errorbars"/><g class="lines"/><g class="points"><path class="point" transform="translate(352.93,21.19)" d="M2,0A2,2 0 1,1 0,-2A2,2 0 0,1 2,0Z" style="opacity: 1; stroke-width: 0px; fill: rgb(11, 121, 230); fill-opacity: 1;"/></g><g class="text"/></g><g class="trace scatter trace43181d" style="stroke-miterlimit: 2; opacity: 1;"><g class="fills"/><g class="errorbars"/><g class="lines"/><g class="points"><path class="point" transform="translate(352.93,21.19)" d="M2,0A2,2 0 1,1 0,-2A2,2 0 0,1 2,0Z" style="opacity: 1; stroke-width: 0px; fill: rgb(11, 121, 230); fill-opacity: 1;"/></g><g class="text"/></g><g class="trace scatter tracea04e7d" style="stroke-miterlimit: 2; opacity: 1;"><g class="fills"/><g class="errorbars"/><g class="lines"/><g class="points"><path class="point" transform="translate(672.07,21.19)" d="M2,0A2,2 0 1,1 0,-2A2,2 0 0,1 2,0Z" style="opacity: 1; stroke-width: 0px; fill: rgb(11, 121, 230); fill-opacity: 1;"/></g><g class="text"/></g></g></g></g><path class="xlines-above crisp" d="M0,0" style="fill: none;"/><path class="ylines-above crisp" d="M0,0" style="fill: none;"/><g class="overlines-above"/><g class="xaxislayer-above"><g class="xtick"><text text-anchor="middle" x="0" y="102.375" transform="translate(412.93,0)" style="font-family: 'Lucida Grande', 'Open Sans', verdana, arial, sans-serif; font-size: 9px; fill: rgb(0, 0, 0); fill-opacity: 0.5; white-space: pre; opacity: 1;">RT_domain</text></g><g class="xtick"><text text-anchor="middle" x="0" y="102.375" transform="translate(732.07,0)" style="font-family: 'Lucida Grande', 'Open Sans', verdana, arial, sans-serif; font-size: 9px; fill: rgb(0, 0, 0); fill-opacity: 0.5; white-space: pre; opacity: 1;">SAg</text></g></g><g class="yaxislayer-above"><g class="ytick"><text text-anchor="end" x="59" y="3.15" transform="translate(0,71.19)" style="font-family: 'Lucida Grande', 'Open Sans', verdana, arial, sans-serif; font-size: 9px; fill: rgb(0, 0, 0); fill-opacity: 0.5; white-space: pre; opacity: 1;">Gene  </text></g></g><g class="overaxes-above"/></g><g class="subplot x2y2"><g class="layer-subplot"><g class="shapelayer"/><g class="imagelayer"/></g><g class="minor-gridlayer"><g class="x2"/><g class="y2"/></g><g class="gridlayer"><g class="x2"><path class="x2grid crisp" transform="translate(401.68,0)" d="M0,120.625v42.375" style="stroke: rgb(0, 0, 0); stroke-opacity: 0.1; stroke-width: 1px;"/><path class="x2grid crisp" transform="translate(572.5,0)" d="M0,120.625v42.375" style="stroke: rgb(0, 0, 0); stroke-opacity: 0.1; stroke-width: 1px;"/><path class="x2grid crisp" transform="translate(743.32,0)" d="M0,120.625v42.375" style="stroke: rgb(0, 0, 0); stroke-opacity: 0.1; stroke-width: 1px;"/></g><g class="y2"><path class="y2grid crisp" transform="translate(0,141.815)" d="M60,0h1025" style="stroke: rgb(0, 0, 0); stroke-opacity: 0.1; stroke-width: 1px;"/></g></g><g class="zerolinelayer"/><g class="layer-between"><g class="shapelayer"/><g class="imagelayer"/></g><path class="xlines-below"/><path class="ylines-below"/><g class="overlines-below"/><g class="xaxislayer-below"/><g class="yaxislayer-below"/><g class="overaxes-below"/><g class="overplot"><g class="x2y2" transform="translate(60,120.625)" clip-path="url(#clipeb58acx2y2plot)"><g class="violinlayer mlayer"><g class="trace violins" style="opacity: 0.5;"><path class="violin" d="M51.25,20.14Q82,19.62 97.37,19.26C112.75,18.9 128.13,18.47 143.5,17.97C158.88,17.47 174.25,16.88 189.62,16.26C205,15.64 220.37,14.93 235.75,14.24C251.13,13.55 266.5,12.81 281.88,12.12C297.25,11.44 312.62,10.74 328,10.13C343.37,9.52 358.75,8.95 374.13,8.48C389.5,8.01 404.87,7.61 420.25,7.29C435.62,6.98 451,6.74 466.38,6.59C481.75,6.44 497.13,6.36 512.5,6.36C527.88,6.36 543.25,6.43 558.63,6.59C574,6.75 589.38,6.98 604.75,7.29C620.13,7.61 635.51,8.01 650.88,8.48C666.26,8.95 681.63,9.52 697,10.13C712.38,10.74 727.75,11.43 743.13,12.12C758.5,12.8 773.88,13.55 789.25,14.24C804.63,14.93 820,15.64 835.38,16.26C850.75,16.88 866.12,17.47 881.5,17.97C896.87,18.47 912.25,18.9 927.63,19.26Q943,19.62 973.75,20.14L973.75,22.24Q943,22.75 927.63,23.11C912.25,23.47 896.87,23.91 881.5,24.41C866.12,24.91 850.75,25.5 835.38,26.12C820,26.74 804.63,27.45 789.25,28.14C773.88,28.83 758.5,29.58 743.13,30.26C727.75,30.94 712.38,31.63 697,32.24C681.63,32.84 666.26,33.42 650.88,33.89C635.51,34.36 620.13,34.76 604.75,35.08C589.38,35.4 574,35.63 558.63,35.79C543.25,35.95 527.88,36.02 512.5,36.02C497.13,36.02 481.75,35.95 466.38,35.79C451,35.63 435.63,35.4 420.25,35.08C404.88,34.76 389.5,34.36 374.13,33.89C358.75,33.42 343.37,32.84 328,32.24C312.62,31.63 297.25,30.94 281.88,30.26C266.5,29.58 251.13,28.83 235.75,28.14C220.37,27.45 205,26.74 189.62,26.12C174.25,25.5 158.88,24.91 143.5,24.41C128.13,23.91 112.75,23.47 97.37,23.11Q82,22.75 51.25,22.24Z" style="vector-effect: none; stroke-width: 2px; stroke: rgb(181, 181, 181); stroke-opacity: 1; fill: rgb(181, 181, 181); fill-opacity: 1;"/><path class="box" d="M512.5,24.9V17.48M384.38,24.9V17.48H640.62V24.9ZM384.38,21.19H341.68M640.62,21.19H683.32" style="vector-effect: non-scaling-stroke; stroke-width: 2px; stroke: rgb(181, 181, 181); stroke-opacity: 1; fill: rgb(181, 181, 181); fill-opacity: 1;"/><path class="mean" d="M512.5,24.9V17.48" style="fill: none; vector-effect: non-scaling-stroke; stroke-width: 2px; stroke-dasharray: 4px, 2px; stroke: rgb(181, 181, 181); stroke-opacity: 1;"/></g></g><g class="scatterlayer mlayer"><g class="trace scatter trace08416b" style="stroke-miterlimit: 2; opacity: 1;"><g class="fills"/><g class="errorbars"/><g class="lines"/><g class="points"><path class="point" transform="translate(341.68,21.19)" d="M2,0A2,2 0 1,1 0,-2A2,2 0 0,1 2,0Z" style="opacity: 1; stroke-width: 0px; fill: rgb(11, 121, 230); fill-opacity: 1;"/></g><g class="text"/></g><g class="trace scatter tracee97d14" style="stroke-miterlimit: 2; opacity: 1;"><g class="fills"/><g class="errorbars"/><g class="lines"/><g class="points"><path class="point" transform="translate(512.5,21.19)" d="M2,0A2,2 0 1,1 0,-2A2,2 0 0,1 2,0Z" style="opacity: 1; stroke-width: 0px; fill: rgb(11, 121, 230); fill-opacity: 1;"/></g><g class="text"/></g><g class="trace scatter trace78794f" style="stroke-miterlimit: 2; opacity: 1;"><g class="fills"/><g class="errorbars"/><g class="lines"/><g class="points"><path class="point" transform="translate(683.32,21.19)" d="M2,0A2,2 0 1,1 0,-2A2,2 0 0,1 2,0Z" style="opacity: 1; stroke-width: 0px; fill: rgb(11, 121, 230); fill-opacity: 1;"/></g><g class="text"/></g></g></g></g><path class="xlines-above crisp" d="M0,0" style="fill: none;"/><path class="ylines-above crisp" d="M0,0" style="fill: none;"/><g class="overlines-above"/><g class="xaxislayer-above"><g class="x2tick"><text text-anchor="middle" x="0" y="173" transform="translate(401.68,0)" style="font-family: 'Lucida Grande', 'Open Sans', verdana, arial, sans-serif; font-size: 9px; fill: rgb(0, 0, 0); fill-opacity: 0.5; white-space: pre; opacity: 1;">739; 741</text></g><g class="x2tick"><text text-anchor="middle" x="0" y="173" transform="translate(572.5,0)" style="font-family: 'Lucida Grande', 'Open Sans', verdana, arial, sans-serif; font-size: 9px; fill: rgb(0, 0, 0); fill-opacity: 0.5; white-space: pre; opacity: 1;">316; 317; 318</text></g><g class="x2tick"><text text-anchor="middle" x="0" y="173" transform="translate(743.32,0)" style="font-family: 'Lucida Grande', 'Open Sans', verdana, arial, sans-serif; font-size: 9px; fill: rgb(0, 0, 0); fill-opacity: 0.5; white-space: pre; opacity: 1;">554; 555; 556</text></g></g><g class="yaxislayer-above"><g class="y2tick"><text text-anchor="end" x="59" y="3.15" transform="translate(0,141.815)" style="font-family: 'Lucida Grande', 'Open Sans', verdana, arial, sans-serif; font-size: 9px; fill: rgb(0, 0, 0); fill-opacity: 0.5; white-space: pre; opacity: 1;">Bases  </text></g></g><g class="overaxes-above"/></g></g><g class="polarlayer"/><g class="smithlayer"/><g class="ternarylayer"/><g class="geolayer"/><g class="funnelarealayer"/><g class="pielayer"/><g class="iciclelayer"/><g class="treemaplayer"/><g class="sunburstlayer"/><g class="glimages"/><defs id="topdefs-eb58ac"><g class="clips"/></defs><g class="layer-above"><g class="imagelayer"/><g class="shapelayer"/></g><g class="infolayer"><g class="g-gtitle"><text class="gtitle" x="550" y="25" text-anchor="middle" dy="0em" style="opacity: 1; font-family: 'Lucida Grande', 'Open Sans', verdana, arial, sans-serif; font-size: 20px; fill: rgb(42, 63, 95); fill-opacity: 1; white-space: pre;"><tspan class="line" dy="0em" x="550" y="25">Multi-Nucleotide Variants</tspan><tspan class="line" dy="1.3em" x="550" y="25">​<tspan style="font-size:70%" dy="-0.6em">3 samples</tspan><tspan dy="0.42em">​</tspan></tspan></text></g><g class="g-xtitle"/><g class="g-x2title"/><g class="g-ytitle"/><g class="g-y2title"/></g></svg>