<svg class="main-svg" xmlns="http://www.w3.org/2000/svg" xmlns:xlink="http://www.w3.org/1999/xlink" width="2200" height="406" style="" viewBox="0 0 1100 203"><rect x="0" y="0" width="1100" height="203" style="fill: rgb(255, 255, 255); fill-opacity: 1;"/><defs id="defs-e7fd91"><g class="clips"><clipPath id="clipe7fd91xyplot" class="plotclip"><rect width="1016" height="42.375"/></clipPath><clipPath id="clipe7fd91x2y2plot" class="plotclip"><rect width="1016" height="42.375"/></clipPath><clipPath class="axesclip" id="clipe7fd91x"><rect x="69" y="0" width="1016" height="203"/></clipPath><clipPath class="axesclip" id="clipe7fd91y"><rect x="0" y="50" width="1100" height="42.375"/></clipPath><clipPath class="axesclip" id="clipe7fd91xy"><rect x="69" y="50" width="1016" height="42.375"/></clipPath><clipPath class="axesclip" id="clipe7fd91y2"><rect x="0" y="120.625" width="1100" height="42.375"/></clipPath><clipPath class="axesclip" id="clipe7fd91xy2"><rect x="69" y="120.625" width="1016" height="42.375"/></clipPath><clipPath class="axesclip" id="clipe7fd91x2"><rect x="69" y="0" width="1016" height="203"/></clipPath><clipPath class="axesclip" id="clipe7fd91x2y"><rect x="69" y="50" width="1016" height="42.375"/></clipPath><clipPath class="axesclip" id="clipe7fd91x2y2"><rect x="69" y="120.625" width="1016" height="42.375"/></clipPath></g><g class="gradients"/><g class="patterns"/></defs><g class="bglayer"/><g class="layer-below"><g class="imagelayer"/><g class="shapelayer"/></g><g class="cartesianlayer"><g class="subplot xy"><g class="layer-subplot"><g class="shapelayer"/><g class="imagelayer"/></g><g class="minor-gridlayer"><g class="x"/><g class="y"/></g><g class="gridlayer"><g class="x"><path class="xgrid crisp" transform="translate(199.57,0)" d="M0,50v42.375" style="stroke: rgb(0, 0, 0); stroke-opacity: 0.1; stroke-width: 1px;"/><path class="xgrid crisp" transform="translate(325.1,0)" d="M0,50v42.375" style="stroke: rgb(0, 0, 0); stroke-opacity: 0.1; stroke-width: 1px;"/><path class="xgrid crisp" transform="translate(450.64,0)" d="M0,50v42.375" style="stroke: rgb(0, 0, 0); stroke-opacity: 0.1; stroke-width: 1px;"/><path class="xgrid crisp" transform="translate(576.1700000000001,0)" d="M0,50v42.375" style="stroke: rgb(0, 0, 0); stroke-opacity: 0.1; stroke-width: 1px;"/><path class="xgrid crisp" transform="translate(701.71,0)" d="M0,50v42.375" style="stroke: rgb(0, 0, 0); stroke-opacity: 0.1; stroke-width: 1px;"/><path class="xgrid crisp" transform="translate(827.24,0)" d="M0,50v42.375" style="stroke: rgb(0, 0, 0); stroke-opacity: 0.1; stroke-width: 1px;"/><path class="xgrid crisp" transform="translate(952.78,0)" d="M0,50v42.375" style="stroke: rgb(0, 0, 0); stroke-opacity: 0.1; stroke-width: 1px;"/><path class="xgrid crisp" transform="translate(1078.31,0)" d="M0,50v42.375" style="stroke: rgb(0, 0, 0); stroke-opacity: 0.1; stroke-width: 1px;"/></g><g class="y"><path class="ygrid crisp" transform="translate(0,71.19)" d="M69,0h1016" style="stroke: rgb(0, 0, 0); stroke-opacity: 0.1; stroke-width: 1px;"/></g></g><g class="zerolinelayer"><path class="xzl zl crisp" transform="translate(74.03,0)" d="M0,50v42.375" style="stroke: rgb(0, 0, 0); stroke-opacity: 0.1; stroke-width: 2px;"/></g><g class="layer-between"><g class="shapelayer"/><g class="imagelayer"/></g><path class="xlines-below"/><path class="ylines-below"/><g class="overlines-below"/><g class="xaxislayer-below"/><g class="yaxislayer-below"/><g class="overaxes-below"/><g class="overplot"><g class="xy" transform="translate(69,50)" clip-path="url(#clipe7fd91xyplot)"><g class="violinlayer mlayer"><g class="trace violins" style="opacity: 0.5;"><path class="violin" d="M-884.51,19.96Q-786.79,19.31 -737.93,18.84C-689.07,18.37 -640.2,17.79 -591.34,17.12C-542.48,16.45 -493.61,15.65 -444.75,14.83C-395.89,14.01 -347.03,13.05 -298.17,12.18C-249.31,11.31 -200.44,10.36 -151.58,9.59C-102.72,8.82 -53.86,8.07 -5,7.55C43.86,7.03 92.73,6.65 141.59,6.45C190.45,6.25 239.31,6.26 288.17,6.36C337.03,6.46 385.9,6.76 434.76,7.06C483.62,7.36 532.48,7.78 581.34,8.17C630.2,8.56 679.07,8.98 727.93,9.39C776.79,9.8 825.65,10.19 874.51,10.61C923.37,11.03 972.24,11.45 1021.1,11.91C1069.96,12.37 1118.82,12.86 1167.68,13.38C1216.54,13.9 1265.41,14.47 1314.27,15.02C1363.13,15.57 1412,16.17 1460.86,16.7C1509.72,17.23 1558.58,17.76 1607.44,18.21C1656.3,18.66 1705.17,19.06 1754.03,19.39Q1802.89,19.72 1900.61,20.21L1900.61,22.16Q1802.89,22.65 1754.03,22.98C1705.17,23.32 1656.3,23.72 1607.44,24.17C1558.58,24.62 1509.72,25.15 1460.86,25.68C1412,26.21 1363.13,26.8 1314.27,27.35C1265.41,27.9 1216.54,28.48 1167.68,29C1118.82,29.52 1069.96,30.01 1021.1,30.47C972.24,30.93 923.37,31.34 874.51,31.76C825.65,32.18 776.79,32.57 727.93,32.98C679.07,33.39 630.2,33.81 581.34,34.2C532.48,34.59 483.62,35.02 434.76,35.32C385.9,35.62 337.03,35.92 288.17,36.02C239.31,36.12 190.45,36.13 141.59,35.93C92.73,35.73 43.86,35.34 -5,34.82C-53.86,34.3 -102.72,33.56 -151.58,32.79C-200.44,32.02 -249.31,31.07 -298.17,30.19C-347.03,29.32 -395.89,28.36 -444.75,27.54C-493.61,26.72 -542.48,25.92 -591.34,25.25C-640.2,24.58 -689.07,24.01 -737.93,23.54Q-786.79,23.07 -884.51,22.42Z" style="vector-effect: none; stroke-width: 2px; stroke: rgb(181, 181, 181); stroke-opacity: 1; fill: rgb(181, 181, 181); fill-opacity: 1;"/><path class="box" d="M257.61,24.9V17.48M68.27,24.9V17.48H822.61V24.9ZM68.27,21.19H5.16M822.61,21.19H1010.95" style="vector-effect: non-scaling-stroke; stroke-width: 2px; stroke: rgb(181, 181, 181); stroke-opacity: 1; fill: rgb(181, 181, 181); fill-opacity: 1;"/><path class="mean" d="M424.57,24.9V17.48" style="fill: none; vector-effect: non-scaling-stroke; stroke-width: 2px; stroke-dasharray: 4px, 2px; stroke: rgb(181, 181, 181); stroke-opacity: 1;"/></g></g><g class="scatterlayer mlayer"><g class="trace scatter trace66a7c1" style="stroke-miterlimit: 2; opacity: 1;"><g class="fills"/><g class="errorbars"/><g class="lines"/><g class="points"><path class="point" transform="translate(1010.95,21.19)" d="M2,0A2,2 0 1,1 0,-2A2,2 0 0,1 2,0Z" style="opacity: 1; stroke-width: 0px; fill: rgb(11, 121, 230); fill-opacity: 1;"/></g><g class="text"/></g><g class="trace scatter trace2aeaf6" style="stroke-miterlimit: 2; opacity: 1;"><g class="fills"/><g class="errorbars"/><g class="lines"/><g class="points"><path class="point" transform="translate(257.61,21.19)" d="M2,0A2,2 0 1,1 0,-2A2,2 0 0,1 2,0Z" style="opacity: 1; stroke-width: 0px; fill: rgb(11, 121, 230); fill-opacity: 1;"/></g><g class="text"/></g><g class="trace scatter trace9e2695" style="stroke-miterlimit: 2; opacity: 1;"><g class="fills"/><g class="errorbars"/><g class="lines"/><g class="points"><path class="point" transform="translate(5.16,21.19)" d="M2,0A2,2 0 1,1 0,-2A2,2 0 0,1 2,0Z" style="opacity: 1; stroke-width: 0px; fill: rgb(11, 121, 230); fill-opacity: 1;"/></g><g class="text"/></g></g></g></g><path class="xlines-above crisp" d="M0,0" style="fill: none;"/><path class="ylines-above crisp" d="M0,0" style="fill: none;"/><g class="overlines-above"/><g class="xaxislayer-above"><g class="xtick"><text text-anchor="middle" x="0" y="102.375" transform="translate(74.03,0)" style="font-family: 'Lucida Grande', 'Open Sans', verdana, arial, sans-serif; font-size: 9px; fill: rgb(0, 0, 0); fill-opacity: 0.5; white-space: pre; opacity: 1;">0</text></g><g class="xtick"><text text-anchor="middle" x="0" y="102.375" style="font-family: 'Lucida Grande', 'Open Sans', verdana, arial, sans-serif; font-size: 9px; fill: rgb(0, 0, 0); fill-opacity: 0.5; white-space: pre; opacity: 1;" transform="translate(199.57,0)">1000</text></g><g class="xtick"><text text-anchor="middle" x="0" y="102.375" style="font-family: 'Lucida Grande', 'Open Sans', verdana, arial, sans-serif; font-size: 9px; fill: rgb(0, 0, 0); fill-opacity: 0.5; white-space: pre; opacity: 1;" transform="translate(325.1,0)">2000</text></g><g class="xtick"><text text-anchor="middle" x="0" y="102.375" style="font-family: 'Lucida Grande', 'Open Sans', verdana, arial, sans-serif; font-size: 9px; fill: rgb(0, 0, 0); fill-opacity: 0.5; white-space: pre; opacity: 1;" transform="translate(450.64,0)">3000</text></g><g class="xtick"><text text-anchor="middle" x="0" y="102.375" style="font-family: 'Lucida Grande', 'Open Sans', verdana, arial, sans-serif; font-size: 9px; fill: rgb(0, 0, 0); fill-opacity: 0.5; white-space: pre; opacity: 1;" transform="translate(576.1700000000001,0)">4000</text></g><g class="xtick"><text text-anchor="middle" x="0" y="102.375" style="font-family: 'Lucida Grande', 'Open Sans', verdana, arial, sans-serif; font-size: 9px; fill: rgb(0, 0, 0); fill-opacity: 0.5; white-space: pre; opacity: 1;" transform="translate(701.71,0)">5000</text></g><g class="xtick"><text text-anchor="middle" x="0" y="102.375" style="font-family: 'Lucida Grande', 'Open Sans', verdana, arial, sans-serif; font-size: 9px; fill: rgb(0, 0, 0); fill-opacity: 0.5; white-space: pre; opacity: 1;" transform="translate(827.24,0)">6000</text></g><g class="xtick"><text text-anchor="middle" x="0" y="102.375" style="font-family: 'Lucida Grande', 'Open Sans', verdana, arial, sans-serif; font-size: 9px; fill: rgb(0, 0, 0); fill-opacity: 0.5; white-space: pre; opacity: 1;" transform="translate(952.78,0)">7000</text></g><g class="xtick"><text text-anchor="middle" x="0" y="102.375" style="font-family: 'Lucida Grande', 'Open Sans', verdana, arial, sans-serif; font-size: 9px; fill: rgb(0, 0, 0); fill-opacity: 0.5; white-space: pre; opacity: 1;" transform="translate(1078.31,0)">8000</text></g></g><g class="yaxislayer-above"><g class="ytick"><text text-anchor="end" x="68" y="3.15" transform="translate(0,71.19)" style="font-family: 'Lucida Grande', 'Open Sans', verdana, arial, sans-serif; font-size: 9px; fill: rgb(0, 0, 0); fill-opacity: 0.5; white-space: pre; opacity: 1;">reads  </text></g></g><g class="overaxes-above"/></g><g class="subplot x2y2"><g class="layer-subplot"><g class="shapelayer"/><g class="imagelayer"/></g><g class="minor-gridlayer"><g class="x2"/><g class="y2"/></g><g class="gridlayer"><g class="x2"><path class="x2grid crisp" transform="translate(199.89,0)" d="M0,120.625v42.375" style="stroke: rgb(0, 0, 0); stroke-opacity: 0.1; stroke-width: 1px;"/><path class="x2grid crisp" transform="translate(325.75,0)" d="M0,120.625v42.375" style="stroke: rgb(0, 0, 0); stroke-opacity: 0.1; stroke-width: 1px;"/><path class="x2grid crisp" transform="translate(451.62,0)" d="M0,120.625v42.375" style="stroke: rgb(0, 0, 0); stroke-opacity: 0.1; stroke-width: 1px;"/><path class="x2grid crisp" transform="translate(577.48,0)" d="M0,120.625v42.375" style="stroke: rgb(0, 0, 0); stroke-opacity: 0.1; stroke-width: 1px;"/><path class="x2grid crisp" transform="translate(703.34,0)" d="M0,120.625v42.375" style="stroke: rgb(0, 0, 0); stroke-opacity: 0.1; stroke-width: 1px;"/><path class="x2grid crisp" transform="translate(829.2,0)" d="M0,120.625v42.375" style="stroke: rgb(0, 0, 0); stroke-opacity: 0.1; stroke-width: 1px;"/><path class="x2grid crisp" transform="translate(955.06,0)" d="M0,120.625v42.375" style="stroke: rgb(0, 0, 0); stroke-opacity: 0.1; stroke-width: 1px;"/><path class="x2grid crisp" transform="translate(1080.92,0)" d="M0,120.625v42.375" style="stroke: rgb(0, 0, 0); stroke-opacity: 0.1; stroke-width: 1px;"/></g><g class="y2"><path class="y2grid crisp" transform="translate(0,141.815)" d="M69,0h1016" style="stroke: rgb(0, 0, 0); stroke-opacity: 0.1; stroke-width: 1px;"/></g></g><g class="zerolinelayer"><path class="x2zl zl crisp" transform="translate(74.03,0)" d="M0,120.625v42.375" style="stroke: rgb(0, 0, 0); stroke-opacity: 0.1; stroke-width: 2px;"/></g><g class="layer-between"><g class="shapelayer"/><g class="imagelayer"/></g><path class="xlines-below"/><path class="ylines-below"/><g class="overlines-below"/><g class="xaxislayer-below"/><g class="yaxislayer-below"/><g class="overaxes-below"/><g class="overplot"><g class="x2y2" transform="translate(69,120.625)" clip-path="url(#clipe7fd91x2y2plot)"><g class="violinlayer mlayer"><g class="trace violins" style="opacity: 0.5;"><path class="violin" d="M-884.51,19.96Q-786.79,19.31 -737.93,18.84C-689.07,18.37 -640.2,17.79 -591.34,17.12C-542.48,16.45 -493.61,15.65 -444.75,14.83C-395.89,14.01 -347.03,13.05 -298.17,12.18C-249.31,11.31 -200.44,10.36 -151.58,9.59C-102.72,8.82 -53.86,8.07 -5,7.55C43.86,7.03 92.73,6.65 141.59,6.45C190.45,6.25 239.31,6.26 288.17,6.36C337.03,6.46 385.9,6.76 434.76,7.06C483.62,7.36 532.48,7.78 581.34,8.17C630.2,8.56 679.07,8.98 727.93,9.39C776.79,9.8 825.65,10.19 874.51,10.61C923.37,11.03 972.24,11.45 1021.1,11.91C1069.96,12.37 1118.82,12.86 1167.68,13.38C1216.54,13.9 1265.41,14.47 1314.27,15.02C1363.13,15.57 1412,16.17 1460.86,16.7C1509.72,17.23 1558.58,17.76 1607.44,18.21C1656.3,18.66 1705.17,19.06 1754.03,19.39Q1802.89,19.72 1900.61,20.21L1900.61,22.16Q1802.89,22.65 1754.03,22.98C1705.17,23.32 1656.3,23.72 1607.44,24.17C1558.58,24.62 1509.72,25.15 1460.86,25.68C1412,26.21 1363.13,26.8 1314.27,27.35C1265.41,27.9 1216.54,28.48 1167.68,29C1118.82,29.52 1069.96,30.01 1021.1,30.47C972.24,30.93 923.37,31.34 874.51,31.76C825.65,32.18 776.79,32.57 727.93,32.98C679.07,33.39 630.2,33.81 581.34,34.2C532.48,34.59 483.62,35.02 434.76,35.32C385.9,35.62 337.03,35.92 288.17,36.02C239.31,36.12 190.45,36.13 141.59,35.93C92.73,35.73 43.86,35.34 -5,34.82C-53.86,34.3 -102.72,33.56 -151.58,32.79C-200.44,32.02 -249.31,31.07 -298.17,30.19C-347.03,29.32 -395.89,28.36 -444.75,27.54C-493.61,26.72 -542.48,25.92 -591.34,25.25C-640.2,24.58 -689.07,24.01 -737.93,23.54Q-786.79,23.07 -884.51,22.42Z" style="vector-effect: none; stroke-width: 2px; stroke: rgb(181, 181, 181); stroke-opacity: 1; fill: rgb(181, 181, 181); fill-opacity: 1;"/><path class="box" d="M257.61,24.9V17.48M68.27,24.9V17.48H822.61V24.9ZM68.27,21.19H5.16M822.61,21.19H1010.95" style="vector-effect: non-scaling-stroke; stroke-width: 2px; stroke: rgb(181, 181, 181); stroke-opacity: 1; fill: rgb(181, 181, 181); fill-opacity: 1;"/><path class="mean" d="M424.57,24.9V17.48" style="fill: none; vector-effect: non-scaling-stroke; stroke-width: 2px; stroke-dasharray: 4px, 2px; stroke: rgb(181, 181, 181); stroke-opacity: 1;"/></g></g><g class="scatterlayer mlayer"><g class="trace scatter trace521205" style="stroke-miterlimit: 2; opacity: 1;"><g class="fills"/><g class="errorbars"/><g class="lines"/><g class="points"><path class="point" transform="translate(1010.95,21.19)" d="M2,0A2,2 0 1,1 0,-2A2,2 0 0,1 2,0Z" style="opacity: 1; stroke-width: 0px; fill: rgb(11, 121, 230); fill-opacity: 1;"/></g><g class="text"/></g><g class="trace scatter tracecad985" style="stroke-miterlimit: 2; opacity: 1;"><g class="fills"/><g class="errorbars"/><g class="lines"/><g class="points"><path class="point" transform="translate(257.61,21.19)" d="M2,0A2,2 0 1,1 0,-2A2,2 0 0,1 2,0Z" style="opacity: 1; stroke-width: 0px; fill: rgb(11, 121, 230); fill-opacity: 1;"/></g><g class="text"/></g><g class="trace scatter trace04d6c9" style="stroke-miterlimit: 2; opacity: 1;"><g class="fills"/><g class="errorbars"/><g class="lines"/><g class="points"><path class="point" transform="translate(5.16,21.19)" d="M2,0A2,2 0 1,1 0,-2A2,2 0 0,1 2,0Z" style="opacity: 1; stroke-width: 0px; fill: rgb(11, 121, 230); fill-opacity: 1;"/></g><g class="text"/></g></g></g></g><path class="xlines-above crisp" d="M0,0" style="fill: none;"/><path class="ylines-above crisp" d="M0,0" style="fill: none;"/><g class="overlines-above"/><g class="xaxislayer-above"><g class="x2tick"><text text-anchor="middle" x="0" y="173" transform="translate(74.03,0)" style="font-family: 'Lucida Grande', 'Open Sans', verdana, arial, sans-serif; font-size: 9px; fill: rgb(0, 0, 0); fill-opacity: 0.5; white-space: pre; opacity: 1;">0</text></g><g class="x2tick"><text text-anchor="middle" x="0" y="173" style="font-family: 'Lucida Grande', 'Open Sans', verdana, arial, sans-serif; font-size: 9px; fill: rgb(0, 0, 0); fill-opacity: 0.5; white-space: pre; opacity: 1;" transform="translate(199.89,0)">0.1</text></g><g class="x2tick"><text text-anchor="middle" x="0" y="173" style="font-family: 'Lucida Grande', 'Open Sans', verdana, arial, sans-serif; font-size: 9px; fill: rgb(0, 0, 0); fill-opacity: 0.5; white-space: pre; opacity: 1;" transform="translate(325.75,0)">0.2</text></g><g class="x2tick"><text text-anchor="middle" x="0" y="173" style="font-family: 'Lucida Grande', 'Open Sans', verdana, arial, sans-serif; font-size: 9px; fill: rgb(0, 0, 0); fill-opacity: 0.5; white-space: pre; opacity: 1;" transform="translate(451.62,0)">0.3</text></g><g class="x2tick"><text text-anchor="middle" x="0" y="173" style="font-family: 'Lucida Grande', 'Open Sans', verdana, arial, sans-serif; font-size: 9px; fill: rgb(0, 0, 0); fill-opacity: 0.5; white-space: pre; opacity: 1;" transform="translate(577.48,0)">0.4</text></g><g class="x2tick"><text text-anchor="middle" x="0" y="173" style="font-family: 'Lucida Grande', 'Open Sans', verdana, arial, sans-serif; font-size: 9px; fill: rgb(0, 0, 0); fill-opacity: 0.5; white-space: pre; opacity: 1;" transform="translate(703.34,0)">0.5</text></g><g class="x2tick"><text text-anchor="middle" x="0" y="173" style="font-family: 'Lucida Grande', 'Open Sans', verdana, arial, sans-serif; font-size: 9px; fill: rgb(0, 0, 0); fill-opacity: 0.5; white-space: pre; opacity: 1;" transform="translate(829.2,0)">0.6</text></g><g class="x2tick"><text text-anchor="middle" x="0" y="173" style="font-family: 'Lucida Grande', 'Open Sans', verdana, arial, sans-serif; font-size: 9px; fill: rgb(0, 0, 0); fill-opacity: 0.5; white-space: pre; opacity: 1;" transform="translate(955.06,0)">0.7</text></g><g class="x2tick"><text text-anchor="middle" x="0" y="173" style="font-family: 'Lucida Grande', 'Open Sans', verdana, arial, sans-serif; font-size: 9px; fill: rgb(0, 0, 0); fill-opacity: 0.5; white-space: pre; opacity: 1;" transform="translate(1080.92,0)">0.8</text></g></g><g class="yaxislayer-above"><g class="y2tick"><text text-anchor="end" x="68" y="3.15" transform="translate(0,141.815)" style="font-family: 'Lucida Grande', 'Open Sans', verdana, arial, sans-serif; font-size: 9px; fill: rgb(0, 0, 0); fill-opacity: 0.5; white-space: pre; opacity: 1;">Percentage  </text></g></g><g class="overaxes-above"/></g></g><g class="polarlayer"/><g class="smithlayer"/><g class="ternarylayer"/><g class="geolayer"/><g class="funnelarealayer"/><g class="pielayer"/><g class="iciclelayer"/><g class="treemaplayer"/><g class="sunburstlayer"/><g class="glimages"/><defs id="topdefs-e7fd91"><g class="clips"/></defs><g class="layer-above"><g class="imagelayer"/><g class="shapelayer"/></g><g class="infolayer"><g class="g-gtitle"><text class="gtitle" x="550" y="25" text-anchor="middle" dy="0em" style="opacity: 1; font-family: 'Lucida Grande', 'Open Sans', verdana, arial, sans-serif; font-size: 20px; fill: rgb(42, 63, 95); fill-opacity: 1; white-space: pre;"><tspan class="line" dy="0em" x="550" y="25">BLAST Sequence Frequency</tspan><tspan class="line" dy="1.3em" x="550" y="25">​<tspan style="font-size:70%" dy="-0.6em">3 samples</tspan><tspan dy="0.42em">​</tspan></tspan></text></g><g class="g-xtitle"/><g class="g-x2title"/><g class="g-ytitle"/><g class="g-y2title"/></g></svg>